<?xml version="1.0" encoding="UTF-8"?>
<svg version="1.1" xmlns="http://www.w3.org/2000/svg" width="1024" height="1024">
<path d="M0 0 C1.07375084 0.00351175 1.07375084 0.00351175 2.16919363 0.00709444 C2.92643928 0.005641 3.68368494 0.00418756 4.46387744 0.00269008 C7.03383616 -0.00099646 9.60373655 0.00252869 12.17369497 0.00595194 C14.02175621 0.00480117 15.86981722 0.00321394 17.71787775 0.0012247 C22.821599 -0.00297466 27.92530171 -0.00087522 33.02902305 0.00221092 C38.52328309 0.00446235 44.01753982 0.00098669 49.51179922 -0.00176901 C60.28508087 -0.00622847 71.05835557 -0.00524946 81.8316375 -0.00235637 C90.5830372 -0.00010302 99.33443495 0.00021049 108.08583486 -0.00088018 C109.32877248 -0.00103341 110.57171011 -0.00118665 111.85231251 -0.00134452 C114.37688124 -0.00166423 116.90144998 -0.00198844 119.42601871 -0.00231712 C142.45308838 -0.00509094 165.48015475 -0.0022086 188.50722362 0.00302548 C209.5466842 0.0077714 230.58613874 0.00734679 251.62559927 0.00256449 C275.24112516 -0.00278535 298.85664839 -0.00489773 322.472175 -0.00182325 C324.9877431 -0.00150468 327.5033112 -0.00119031 330.01887929 -0.00088018 C331.87570784 -0.00064877 331.87570784 -0.00064877 333.77004808 -0.00041268 C342.51650583 0.00045274 351.26296143 -0.00101093 360.00941885 -0.00335974 C370.66042709 -0.00615697 381.31142797 -0.00542111 391.96243536 -0.00007899 C397.40243614 0.00255907 402.84242459 0.00356133 408.28242528 0.00027186 C413.25391588 -0.00268898 418.22538264 -0.00110189 423.19687104 0.00424941 C425.00371082 0.00537451 426.81055258 0.00478038 428.61739111 0.00237362 C431.056797 -0.00062864 433.49611916 0.00241231 435.93552053 0.00709444 C436.65135443 0.00475328 437.36718832 0.00241211 438.10471416 0 C442.93820673 0.01878524 442.93820673 0.01878524 444.05235708 1.13293558 C446.72296581 1.34377312 449.37757058 1.50884755 452.05235708 1.63293558 C459.91722194 1.99780045 459.91722194 1.99780045 461.05235708 3.13293558 C462.26923208 3.21543558 463.48610708 3.29793558 464.73985708 3.38293558 C472.91955801 4.19436192 480.69202951 7.62423694 488.17735708 10.88293558 C490.49654332 11.89127743 492.58312589 12.63908935 495.05235708 13.13293558 C495.05235708 13.79293558 495.05235708 14.45293558 495.05235708 15.13293558 C495.71235708 15.23606058 496.37235708 15.33918558 497.05235708 15.44543558 C504.68979042 17.19568072 510.95153731 20.60486242 517.55235708 24.69543558 C518.37477895 25.18979105 519.19720083 25.68414652 520.04454458 26.19348246 C521.20856802 26.90794535 521.20856802 26.90794535 522.39610708 27.63684183 C523.09929067 28.06811381 523.80247427 28.49938578 524.52696645 28.9437266 C525.03034536 29.33616556 525.53372427 29.72860453 526.05235708 30.13293558 C526.05235708 30.79293558 526.05235708 31.45293558 526.05235708 32.13293558 C527.04235708 32.13293558 528.03235708 32.13293558 529.05235708 32.13293558 C529.05235708 32.79293558 529.05235708 33.45293558 529.05235708 34.13293558 C530.04235708 34.13293558 531.03235708 34.13293558 532.05235708 34.13293558 C532.05235708 34.79293558 532.05235708 35.45293558 532.05235708 36.13293558 C532.71235708 36.13293558 533.37235708 36.13293558 534.05235708 36.13293558 C534.05235708 36.79293558 534.05235708 37.45293558 534.05235708 38.13293558 C535.04235708 38.13293558 536.03235708 38.13293558 537.05235708 38.13293558 C537.05235708 38.79293558 537.05235708 39.45293558 537.05235708 40.13293558 C537.63501333 40.39074808 538.21766958 40.64856058 538.81798208 40.91418558 C541.23264738 42.23127575 542.86975885 43.68381942 544.80235708 45.63293558 C545.41595083 46.24137308 546.02954458 46.84981058 546.66173208 47.47668558 C548.05235708 49.13293558 548.05235708 49.13293558 548.05235708 51.13293558 C548.71235708 51.13293558 549.37235708 51.13293558 550.05235708 51.13293558 C550.05235708 51.79293558 550.05235708 52.45293558 550.05235708 53.13293558 C550.71235708 53.13293558 551.37235708 53.13293558 552.05235708 53.13293558 C552.05235708 53.79293558 552.05235708 54.45293558 552.05235708 55.13293558 C552.71235708 55.13293558 553.37235708 55.13293558 554.05235708 55.13293558 C554.05235708 55.79293558 554.05235708 56.45293558 554.05235708 57.13293558 C554.71235708 57.13293558 555.37235708 57.13293558 556.05235708 57.13293558 C556.05235708 57.79293558 556.05235708 58.45293558 556.05235708 59.13293558 C556.71235708 59.13293558 557.37235708 59.13293558 558.05235708 59.13293558 C562.11950281 62.86852052 564.73257637 66.72183467 566.05235708 72.13293558 C566.71235708 72.13293558 567.37235708 72.13293558 568.05235708 72.13293558 C569.4816651 74.10439492 570.77490101 76.0653005 572.05235708 78.13293558 C572.45841177 78.77102152 572.86446645 79.40910746 573.28282583 80.06652933 C574.55719598 82.07807361 575.80614906 84.1038533 577.05235708 86.13293558 C577.71235708 87.18481058 578.37235708 88.23668558 579.05235708 89.32043558 C581.52624373 93.65724903 583.11042909 98.36538358 584.80626333 103.04699808 C585.9384439 106.1151147 585.9384439 106.1151147 587.61095083 108.60168558 C589.37810092 111.70497355 589.90797116 114.50216935 590.55235708 118.00793558 C591.65886155 123.68414785 591.65886155 123.68414785 593.67735708 129.07043558 C595.1937118 132.44777111 595.61357332 135.4764043 596.05235708 139.13293558 C596.38235708 139.46293558 596.71235708 139.79293558 597.05235708 140.13293558 C597.15211588 142.65988919 597.18597641 145.15955735 597.17819822 147.68705851 C597.17965166 148.49157863 597.1811051 149.29609875 597.18260258 150.12499827 C597.18628952 152.85577116 597.18276379 155.58648916 597.17934072 158.31726176 C597.18049148 160.28081739 597.18207869 162.2443728 597.18406796 164.20792776 C597.18826754 169.63089272 597.18616778 175.05384023 597.18308175 180.47680527 C597.1808304 186.31462672 597.18430593 192.15244506 597.18706167 197.99026591 C597.19152122 209.43732453 597.19054208 220.88437662 597.18764903 232.3314355 C597.18539572 241.63012727 597.18508216 250.92881752 597.18617284 260.22750956 C597.18628742 261.21704036 597.18628742 261.21704036 597.18640431 262.22656169 C597.18671563 264.90416605 597.18703403 267.58177042 597.18736408 270.25937478 C597.19042595 295.39876052 597.18764507 320.5381427 597.18226718 345.67752789 C597.17752126 368.03278289 597.17794587 390.3880322 597.18272817 412.74328715 C597.18807796 437.83546924 597.19020884 462.92764818 597.18711591 488.01983076 C597.18679517 490.69267438 597.18648233 493.36551799 597.18617284 496.03836161 C597.18601857 497.3536424 597.18586429 498.66892318 597.18570534 500.02406096 C597.18483991 509.31754534 597.18630362 518.61102752 597.1886524 527.90451151 C597.19144957 539.2215996 597.19071388 550.53868074 597.18537165 561.85576802 C597.18273352 567.63601332 597.18173145 573.41624703 597.1850208 579.19649225 C597.18798149 584.47885339 597.1863948 589.76119208 597.18104325 595.04355115 C597.17991808 596.96344538 597.18051242 598.88334147 597.18291904 600.80323452 C597.18592097 603.39512159 597.1828807 605.98692984 597.17819822 608.57881266 C597.18053938 609.33956823 597.18288055 610.1003238 597.18529266 610.88413256 C597.16650742 616.01878524 597.16650742 616.01878524 596.05235708 617.13293558 C595.84460147 618.79498046 595.68517453 620.4632305 595.55235708 622.13293558 C595.16346819 627.02182447 595.16346819 627.02182447 594.05235708 628.13293558 C593.92860708 629.14356058 593.80485708 630.15418558 593.67735708 631.19543558 C593.12814853 634.65544941 592.27915567 637.5749353 590.97423208 640.81262308 C590.31653533 642.46801236 589.70693813 644.14284691 589.13048208 645.82824808 C583.85322312 660.7804818 575.70333361 674.60720008 566.05235708 687.13293558 C565.24857059 688.35421118 564.45454313 689.5820622 563.67735708 690.82043558 C563.14110708 691.58356058 562.60485708 692.34668558 562.05235708 693.13293558 C561.39235708 693.13293558 560.73235708 693.13293558 560.05235708 693.13293558 C560.05235708 693.79293558 560.05235708 694.45293558 560.05235708 695.13293558 C559.39235708 695.13293558 558.73235708 695.13293558 558.05235708 695.13293558 C557.76360708 695.73106058 557.47485708 696.32918558 557.17735708 696.94543558 C556.05235708 699.13293558 556.05235708 699.13293558 554.05235708 702.13293558 C553.39235708 702.13293558 552.73235708 702.13293558 552.05235708 702.13293558 C552.05235708 702.79293558 552.05235708 703.45293558 552.05235708 704.13293558 C551.39235708 704.13293558 550.73235708 704.13293558 550.05235708 704.13293558 C550.05235708 704.79293558 550.05235708 705.45293558 550.05235708 706.13293558 C549.39235708 706.13293558 548.73235708 706.13293558 548.05235708 706.13293558 C548.05235708 706.79293558 548.05235708 707.45293558 548.05235708 708.13293558 C547.39235708 708.13293558 546.73235708 708.13293558 546.05235708 708.13293558 C546.05235708 708.79293558 546.05235708 709.45293558 546.05235708 710.13293558 C545.39235708 710.13293558 544.73235708 710.13293558 544.05235708 710.13293558 C544.05235708 710.79293558 544.05235708 711.45293558 544.05235708 712.13293558 C543.39235708 712.13293558 542.73235708 712.13293558 542.05235708 712.13293558 C542.05235708 712.79293558 542.05235708 713.45293558 542.05235708 714.13293558 C541.39235708 714.13293558 540.73235708 714.13293558 540.05235708 714.13293558 C540.05235708 714.79293558 540.05235708 715.45293558 540.05235708 716.13293558 C539.39235708 716.13293558 538.73235708 716.13293558 538.05235708 716.13293558 C538.05235708 716.79293558 538.05235708 717.45293558 538.05235708 718.13293558 C535.93516958 719.85949808 535.93516958 719.85949808 533.17735708 721.75793558 C532.2724352 722.38957621 531.36751333 723.02121683 530.43516958 723.67199808 C528.05235708 725.13293558 528.05235708 725.13293558 526.05235708 725.13293558 C526.05235708 725.79293558 526.05235708 726.45293558 526.05235708 727.13293558 C525.06235708 727.13293558 524.07235708 727.13293558 523.05235708 727.13293558 C523.05235708 727.79293558 523.05235708 728.45293558 523.05235708 729.13293558 C522.5186852 729.42426371 521.98501333 729.71559183 521.43516958 730.01574808 C517.23304064 732.32764601 513.08584551 734.69974031 508.98985708 737.19543558 C496.34446938 744.79444962 496.34446938 744.79444962 491.05235708 744.13293558 C491.05235708 744.79293558 491.05235708 745.45293558 491.05235708 746.13293558 C490.34208364 746.33789652 489.6318102 746.54285746 488.90001333 746.75402933 C487.98091177 747.0234434 487.0618102 747.29285746 486.11485708 747.57043558 C484.74007192 747.97068949 484.74007192 747.97068949 483.33751333 748.37902933 C481.11210777 748.9231961 481.11210777 748.9231961 480.05235708 750.13293558 C477.71938275 750.17386496 475.38530483 750.17535282 473.05235708 750.13293558 C473.05235708 750.79293558 473.05235708 751.45293558 473.05235708 752.13293558 C471.00157583 752.36080017 468.95079458 752.58866475 466.90001333 752.81652933 C465.04095479 752.95180172 465.04095479 752.95180172 464.05235708 754.13293558 C463.00048208 754.27731058 461.94860708 754.42168558 460.86485708 754.57043558 C457.199962 754.96515461 457.199962 754.96515461 454.50853384 756.12927347 C449.65211396 757.53956148 444.97868258 757.61206044 439.94102895 757.75402933 C438.74094953 757.79176966 437.54087011 757.82950999 436.30442464 757.86839396 C415.73884035 758.45198503 395.14927883 758.23872665 374.57811964 758.20139796 C368.18708912 758.19122154 361.79605511 758.18786446 355.40501821 758.18396097 C344.61249263 758.17665431 333.8199747 758.16658951 323.02745473 758.1534434 C322.34668318 758.15261558 321.66591162 758.15178777 320.96451062 758.15093488 C314.80715463 758.14341102 308.64979896 758.13563357 302.49244344 758.12773234 C282.58533513 758.10219315 262.67822981 758.08110737 242.77110708 758.07043558 C240.821543 758.06929306 240.821543 758.06929306 238.8325938 758.06812745 C194.96506268 758.04457931 151.10909493 758.34197863 107.24574625 758.92897099 C88.88584 759.17268147 70.52566278 759.26041012 52.16432559 759.31380635 C49.87995193 759.32057607 47.59558187 759.32816416 45.31121099 759.33581072 C43.82435275 759.34042025 42.33749438 759.34499116 40.85063589 759.34951884 C39.54874193 759.35358807 38.24684797 759.3576573 36.90550268 759.36184984 C23.99611908 759.36713291 11.13543407 758.96268581 -1.75233042 758.24621683 C-2.49383467 758.2072699 -3.23533892 758.16832297 -3.999313 758.12819582 C-6.0920622 758.01546176 -8.18358028 757.88979582 -10.27527964 757.75915629 C-11.46950541 757.68703425 -12.66373118 757.61491221 -13.89414561 757.54060465 C-16.76957169 757.15670968 -18.46237044 756.53899248 -20.94764292 755.13293558 C-23.53296993 754.68228926 -23.53296993 754.68228926 -26.19764292 754.50793558 C-27.08967417 754.43316996 -27.98170542 754.35840433 -28.90076792 754.28137308 C-29.57623667 754.23238871 -30.25170542 754.18340433 -30.94764292 754.13293558 C-30.94764292 753.47293558 -30.94764292 752.81293558 -30.94764292 752.13293558 C-33.58764292 752.13293558 -36.22764292 752.13293558 -38.94764292 752.13293558 C-38.94764292 751.47293558 -38.94764292 750.81293558 -38.94764292 750.13293558 C-40.46358042 750.22574808 -40.46358042 750.22574808 -42.01014292 750.32043558 C-46.33691913 750.11439862 -49.05958466 748.96692533 -52.94764292 747.13293558 C-54.27040348 746.75984927 -55.59996369 746.40247143 -56.94764292 746.13293558 C-56.94764292 745.47293558 -56.94764292 744.81293558 -56.94764292 744.13293558 C-58.26764292 744.13293558 -59.58764292 744.13293558 -60.94764292 744.13293558 C-60.94764292 743.47293558 -60.94764292 742.81293558 -60.94764292 742.13293558 C-61.80615855 742.03109965 -62.66467417 741.92926371 -63.54920542 741.82434183 C-67.23260047 741.07496146 -69.997875 739.80670328 -73.32264292 738.07043558 C-74.3822523 737.52258402 -75.44186167 736.97473246 -76.53358042 736.41027933 C-77.33022105 735.9887559 -78.12686167 735.56723246 -78.94764292 735.13293558 C-78.94764292 734.47293558 -78.94764292 733.81293558 -78.94764292 733.13293558 C-79.93764292 733.13293558 -80.92764292 733.13293558 -81.94764292 733.13293558 C-81.94764292 732.47293558 -81.94764292 731.81293558 -81.94764292 731.13293558 C-82.93764292 731.13293558 -83.92764292 731.13293558 -84.94764292 731.13293558 C-84.94764292 730.47293558 -84.94764292 729.81293558 -84.94764292 729.13293558 C-85.93764292 729.13293558 -86.92764292 729.13293558 -87.94764292 729.13293558 C-87.94764292 728.47293558 -87.94764292 727.81293558 -87.94764292 727.13293558 C-88.56639292 726.98856058 -89.18514292 726.84418558 -89.82264292 726.69543558 C-91.94764292 726.13293558 -91.94764292 726.13293558 -93.94764292 725.13293558 C-93.94764292 724.47293558 -93.94764292 723.81293558 -93.94764292 723.13293558 C-94.64244761 722.91637308 -95.3372523 722.69981058 -96.05311167 722.47668558 C-99.75450464 720.7583601 -102.30883788 718.40852502 -105.26014292 715.63293558 C-105.80992808 715.1340684 -106.35971323 714.63520121 -106.92615855 714.12121683 C-108.31091174 712.83795487 -109.63483635 711.48971175 -110.94764292 710.13293558 C-110.94764292 709.47293558 -110.94764292 708.81293558 -110.94764292 708.13293558 C-111.58701792 707.86481058 -112.22639292 707.59668558 -112.88514292 707.32043558 C-114.94764292 706.13293558 -114.94764292 706.13293558 -115.94764292 703.13293558 C-116.60764292 703.13293558 -117.26764292 703.13293558 -117.94764292 703.13293558 C-117.94764292 702.14293558 -117.94764292 701.15293558 -117.94764292 700.13293558 C-119.26764292 699.80293558 -120.58764292 699.47293558 -121.94764292 699.13293558 C-121.94764292 698.14293558 -121.94764292 697.15293558 -121.94764292 696.13293558 C-122.60764292 696.13293558 -123.26764292 696.13293558 -123.94764292 696.13293558 C-124.93764292 693.65793558 -124.93764292 693.65793558 -125.94764292 691.13293558 C-126.60764292 691.13293558 -127.26764292 691.13293558 -127.94764292 691.13293558 C-127.94764292 690.47293558 -127.94764292 689.81293558 -127.94764292 689.13293558 C-128.60764292 689.13293558 -129.26764292 689.13293558 -129.94764292 689.13293558 C-129.94764292 687.81293558 -129.94764292 686.49293558 -129.94764292 685.13293558 C-130.60764292 685.13293558 -131.26764292 685.13293558 -131.94764292 685.13293558 C-131.94764292 684.47293558 -131.94764292 683.81293558 -131.94764292 683.13293558 C-132.60764292 683.13293558 -133.26764292 683.13293558 -133.94764292 683.13293558 C-135.10650071 681.36776817 -136.17393167 679.54226601 -137.19764292 677.69543558 C-139.83596936 673.02466144 -142.60092326 668.55470957 -145.68592417 664.16809183 C-148.05271997 660.35044288 -148.94764292 657.66313586 -148.94764292 653.13293558 C-149.60764292 653.13293558 -150.26764292 653.13293558 -150.94764292 653.13293558 C-153.75159965 646.69949173 -155.77379204 640.34786823 -157.33436167 633.50402933 C-157.71803298 631.19337456 -157.71803298 631.19337456 -158.94764292 630.13293558 C-159.26687784 628.07564389 -159.45925644 626.01680037 -159.66639292 623.94543558 C-159.76762336 622.11618228 -159.76762336 622.11618228 -160.94764292 621.13293558 C-161.15923258 618.67026703 -161.32382076 616.22520675 -161.44764292 613.75793558 C-161.70040733 608.36938421 -161.70040733 608.36938421 -162.94764292 603.13293558 C-163.04283227 600.67518028 -163.08160316 598.24613085 -163.07348406 595.78841406 C-163.0749375 595.03084868 -163.07639094 594.27328331 -163.07788843 593.4927614 C-163.08156126 590.93374834 -163.07805607 588.37479436 -163.07462656 585.81578165 C-163.07577787 583.9708318 -163.07736546 582.12588217 -163.07935381 580.28093302 C-163.08354574 575.19506263 -163.08145704 570.10921089 -163.07836759 565.0233404 C-163.07611319 559.54477479 -163.0795933 554.06621247 -163.08234751 548.5876475 C-163.08680367 537.84906275 -163.08582945 527.11048498 -163.08293487 516.37189995 C-163.08068035 507.64820733 -163.08036853 498.92451667 -163.08145869 490.20082384 C-163.08161192 488.96122128 -163.08176515 487.72161873 -163.08192303 486.44445245 C-163.08224274 483.92656952 -163.08256695 481.40868658 -163.08289562 478.89080364 C-163.0856685 455.93253728 -163.08278861 432.974274 -163.07755302 410.0160084 C-163.07280663 389.04334471 -163.07323233 368.0706871 -163.07801402 347.09802347 C-163.08336467 323.55095919 -163.08547583 300.00389749 -163.08240175 276.45683253 C-163.08208319 273.94829887 -163.08176882 271.43976522 -163.08145869 268.93123156 C-163.08130441 267.69684066 -163.08115014 266.46244975 -163.08099119 265.19065307 C-163.08012605 256.47219369 -163.08158882 247.75373647 -163.08393824 239.03527743 C-163.08673634 228.41801622 -163.08599775 217.80076242 -163.0806575 207.18350207 C-163.0780207 201.76159088 -163.07701507 196.33969205 -163.08030665 190.91778094 C-163.08327002 185.96173798 -163.0816761 181.00571892 -163.0763291 176.04967815 C-163.07520509 174.24960979 -163.07579572 172.44953945 -163.07820489 170.64947235 C-163.08121281 168.21682419 -163.07816023 165.78425964 -163.07348406 163.35161597 C-163.07582523 162.64058512 -163.0781664 161.92955428 -163.08057851 161.19697705 C-163.06179332 156.36123637 -163.06179332 156.36123637 -161.94764292 154.13293558 C-161.68323481 150.69195776 -161.5030438 147.25745058 -161.34217417 143.81066996 C-161.04838148 138.23367414 -161.04838148 138.23367414 -159.94764292 137.13293558 C-159.73926873 135.30387323 -159.58014633 133.46905424 -159.44764292 131.63293558 C-159.05875403 126.24404669 -159.05875403 126.24404669 -157.94764292 125.13293558 C-157.58003561 122.80475595 -157.24522711 120.47109708 -156.94764292 118.13293558 C-156.28764292 118.13293558 -155.62764292 118.13293558 -154.94764292 118.13293558 C-155.00951792 117.12231058 -155.07139292 116.11168558 -155.13514292 115.07043558 C-154.92638042 110.68642297 -153.81678216 108.0788962 -151.94764292 104.13293558 C-151.5119398 102.90961527 -151.07623667 101.68629496 -150.62733042 100.42590433 C-148.97819391 95.97574764 -146.76981181 91.9753853 -144.38514292 87.88293558 C-143.59139576 86.50317476 -142.79840236 85.12297999 -142.00623667 83.74231058 C-141.64384898 83.11260355 -141.28146128 82.48289652 -140.90809214 81.83410746 C-139.85290088 79.96512609 -138.87139025 78.07030835 -137.94764292 76.13293558 C-137.28764292 76.13293558 -136.62764292 76.13293558 -135.94764292 76.13293558 C-135.84451792 75.57606058 -135.74139292 75.01918558 -135.63514292 74.44543558 C-134.80585884 71.65602548 -133.60465237 69.51902918 -131.94764292 67.13293558 C-131.28764292 67.13293558 -130.62764292 67.13293558 -129.94764292 67.13293558 C-129.84451792 66.55543558 -129.74139292 65.97793558 -129.63514292 65.38293558 C-128.83867827 62.77632401 -127.75699016 61.15940448 -125.94764292 59.13293558 C-125.28764292 59.13293558 -124.62764292 59.13293558 -123.94764292 59.13293558 C-123.94764292 58.47293558 -123.94764292 57.81293558 -123.94764292 57.13293558 C-123.28764292 57.13293558 -122.62764292 57.13293558 -121.94764292 57.13293558 C-121.94764292 56.47293558 -121.94764292 55.81293558 -121.94764292 55.13293558 C-121.28764292 55.13293558 -120.62764292 55.13293558 -119.94764292 55.13293558 C-119.88576792 54.57606058 -119.82389292 54.01918558 -119.76014292 53.44543558 C-118.59956602 50.14225517 -116.54550847 48.41398826 -113.94764292 46.13293558 C-113.28764292 46.13293558 -112.62764292 46.13293558 -111.94764292 46.13293558 C-111.94764292 45.47293558 -111.94764292 44.81293558 -111.94764292 44.13293558 C-111.28764292 44.13293558 -110.62764292 44.13293558 -109.94764292 44.13293558 C-109.94764292 43.47293558 -109.94764292 42.81293558 -109.94764292 42.13293558 C-108.33826792 40.44152933 -108.33826792 40.44152933 -106.19764292 38.57043558 C-105.50154917 37.95039652 -104.80545542 37.33035746 -104.08826792 36.69152933 C-101.96781737 35.14762464 -100.50843719 34.55396707 -97.94764292 34.13293558 C-97.94764292 33.47293558 -97.94764292 32.81293558 -97.94764292 32.13293558 C-94.94764292 30.13293558 -94.94764292 30.13293558 -91.94764292 30.13293558 C-91.45264292 28.64793558 -91.45264292 28.64793558 -90.94764292 27.13293558 C-84.05332706 21.97303881 -73.62062779 15.13293558 -64.94764292 15.13293558 C-64.94764292 14.47293558 -64.94764292 13.81293558 -64.94764292 13.13293558 C-62.96764292 13.13293558 -60.98764292 13.13293558 -58.94764292 13.13293558 C-58.94764292 12.47293558 -58.94764292 11.81293558 -58.94764292 11.13293558 C-57.62764292 11.13293558 -56.30764292 11.13293558 -54.94764292 11.13293558 C-54.94764292 10.47293558 -54.94764292 9.81293558 -54.94764292 9.13293558 C-48.86521713 6.4718743 -42.83033063 5.24257946 -36.3206898 4.13562113 C-32.83942562 3.79653822 -32.83942562 3.79653822 -29.94764292 2.13293558 C-28.18031116 1.98740827 -26.40763299 1.9057109 -24.63514292 1.85168558 C-23.02252573 1.79561136 -23.02252573 1.79561136 -21.37733042 1.73840433 C-19.09087209 1.66809183 -16.80441376 1.59777933 -14.51795542 1.52746683 C-12.90533823 1.47139261 -12.90533823 1.47139261 -11.26014292 1.41418558 C-10.26627573 1.38389261 -9.27240855 1.35359965 -8.24842417 1.32238871 C-5.29846152 1.07948007 -3.25832517 0.01266339 0 0 Z " fill="#14352A" transform="translate(293.9476429224014,132.86706441640854)"/>
<path d="M0 0 C1.03603945 -0.00497769 2.07207891 -0.00995538 3.13951349 -0.01508391 C6.5921791 -0.02561538 10.04363916 -0.00055413 13.49621582 0.02450562 C15.97864898 0.02427881 18.46108276 0.02186283 20.94351196 0.01742554 C26.97270613 0.01231761 33.00143339 0.03021039 39.0305298 0.05858882 C46.05052574 0.09049485 53.07045842 0.09484214 60.09051639 0.09778075 C72.60961824 0.10383736 85.1285577 0.13291901 97.64758301 0.1758728 C109.80188315 0.21753909 121.95610704 0.2458251 134.11047363 0.25790405 C134.8602666 0.25865227 135.61005957 0.25940048 136.38257354 0.26017137 C139.39620978 0.26314553 142.40984605 0.26608283 145.42348239 0.26895765 C158.40100163 0.28167606 171.37850381 0.30543666 184.356004 0.33059591 C186.45946996 0.33457969 188.56293625 0.33829764 190.66640282 0.34194994 C198.64293336 0.35604978 206.61941543 0.37558745 214.59591293 0.40342712 C217.0175567 0.41117474 219.43920654 0.41722518 221.86085892 0.42150497 C225.1509277 0.42768292 228.44091402 0.44001562 231.73095703 0.45410156 C232.70242408 0.45459932 233.67389113 0.45509708 234.67479658 0.45560992 C235.54905303 0.46068446 236.42330947 0.465759 237.32405853 0.47098732 C238.08431634 0.47331796 238.84457416 0.47564861 239.62787008 0.47804987 C241.35754395 0.60800171 241.35754395 0.60800171 242.35754395 1.60800171 C242.46145562 4.28317486 242.50115719 6.93336997 242.49938965 9.60922241 C242.50460129 10.8679995 242.50460129 10.8679995 242.50991821 12.15220642 C242.51729198 13.98286076 242.52262868 15.81352414 242.52620888 17.64418983 C242.53336579 20.55026623 242.54903098 23.45617292 242.56755066 26.36219788 C242.62002462 34.62810799 242.66790377 42.89393097 242.68347168 51.16000366 C242.6936117 56.2123295 242.72309911 61.26423692 242.76479149 66.31639671 C242.77703309 68.23508714 242.78223537 70.15383691 242.77999306 72.07256508 C242.76823312 85.43312082 242.92984534 98.86398198 252.8145752 109.11972046 C260.74251576 116.49066286 269.47005278 119.67439793 280.1673584 119.81332397 C281.16331779 119.82817337 281.16331779 119.82817337 282.17939758 119.84332275 C284.35983799 119.87474597 286.54030014 119.8996187 288.7208252 119.92440796 C290.23826137 119.94499409 291.75569201 119.96599098 293.27311707 119.98738098 C297.25639357 120.04243044 301.23972035 120.09191483 305.2230835 120.14022827 C309.29203741 120.19056878 313.36091881 120.24618918 317.42980957 120.30136108 C325.40565961 120.40873302 333.38157054 120.51022404 341.35754395 120.60800171 C341.42607363 152.60038986 341.47912031 184.59275701 341.51073993 216.58520148 C341.51449177 220.36754126 341.51837477 224.1498809 341.52233887 227.93222046 C341.5231258 228.68517365 341.52391273 229.43812684 341.52472351 230.2138968 C341.53775529 242.38416416 341.56139677 254.55438875 341.58900233 266.72463079 C341.61711868 279.2248929 341.63373334 291.72513269 341.63980943 304.22542512 C341.64391299 311.93044206 341.65684431 319.63533804 341.68129335 327.34031771 C341.69911903 333.26186599 341.70089391 339.18335317 341.69686699 345.10492897 C341.69768882 347.52434213 341.70360932 349.9437601 341.71516037 352.36314583 C341.80059768 371.18975929 341.73958143 388.60791207 328.35754395 403.35800171 C320.69587441 410.51663233 311.40029959 415.4578566 300.7598877 415.24472046 C297.31254645 414.33103489 295.79982136 413.2504658 293.35754395 410.60800171 C292.0015707 407.38018372 291.14933597 404.06089711 290.29504395 400.67050171 C288.53896714 393.84787277 287.17901257 388.70195225 281.49035645 384.09628296 C275.69810886 380.70432474 270.34539611 379.77523389 263.6895752 379.16268921 C260.06963053 378.56007239 257.50130634 377.48028687 254.35754395 375.60800171 C252.11735873 371.12763128 253.00945917 365.23033532 254.35754395 360.54550171 C254.68754395 359.57612671 255.01754395 358.60675171 255.35754395 357.60800171 C256.01754395 357.60800171 256.67754395 357.60800171 257.35754395 357.60800171 C257.44004395 356.76237671 257.52254395 355.91675171 257.60754395 355.04550171 C258.32552081 351.75477441 259.46275529 349.61467854 261.1817627 346.76425171 C268.19240901 333.90751826 270.31332421 319.83878319 271.60754395 305.48300171 C271.69995361 304.49388794 271.79236328 303.50477417 271.88757324 302.48568726 C272.45298453 295.41072215 272.13973606 288.65530032 271.35754395 281.60800171 C271.28342285 280.89096069 271.20930176 280.17391968 271.13293457 279.43515015 C269.94975846 268.51049068 267.98663242 258.38412205 263.1270752 248.48300171 C262.35754395 246.60800171 262.35754395 246.60800171 262.35754395 243.60800171 C261.69754395 243.60800171 261.03754395 243.60800171 260.35754395 243.60800171 C259.94504395 242.71339233 259.53254395 241.81878296 259.10754395 240.89706421 C255.34803842 232.94782805 251.19818968 226.25144536 245.35754395 219.60800171 C244.79293457 218.92350952 244.2283252 218.23901733 243.64660645 217.53378296 C224.41601223 194.55638283 195.05579719 180.16061548 165.34484863 177.42251587 C145.31092116 175.92243912 124.66397907 176.70255711 106.07752991 185.08776855 C96.81127686 189.21807165 89.24202566 190.41370983 78.99035645 190.12362671 C77.57607091 190.10728218 76.16174734 190.09398226 74.74740601 190.08352661 C71.07106586 190.04974594 67.3962764 189.98152476 63.72064209 189.90341187 C57.82069095 189.78370411 51.91995524 189.71670024 46.01919174 189.65187836 C43.97998803 189.62433095 41.94160495 189.58112954 39.90274048 189.53530884 C28.82632575 189.32000586 28.82632575 189.32000586 18.35754395 192.60800171 C17.44815354 195.33617293 17.16545321 197.15509948 17.10754395 199.98300171 C17.0817627 200.73323608 17.05598145 201.48347046 17.02941895 202.25643921 C17.47319244 205.43681592 18.31472426 207.11818467 20.35754395 209.60800171 C23.54561478 210.82163899 23.54561478 210.82163899 27.17004395 211.48300171 C33.88766841 213.19005237 36.55387363 215.02928524 40.35754395 220.60800171 C41.74973145 221.81456421 41.74973145 221.81456421 43.17004395 223.04550171 C46.00381659 226.36506395 46.46334622 229.35680112 46.35754395 233.60800171 C45.60190941 236.62397513 44.40809456 239.35264205 43.10754395 242.17050171 C42.79430176 242.88657593 42.48105957 243.60265015 42.1583252 244.34042358 C40.7376041 247.57978558 39.27094916 250.79540832 37.78723145 254.00643921 C27.47197054 279.99187788 27.11522009 312.78744899 37.62316895 338.73300171 C39.95973673 344.02546849 42.45517528 349.12028884 45.98254395 353.73300171 C49.37207142 358.35508464 48.82524695 364.13587657 48.35754395 369.60800171 C46.85754395 373.29550171 46.85754395 373.29550171 45.35754395 375.60800171 C44.69754395 375.60800171 44.03754395 375.60800171 43.35754395 375.60800171 C43.35754395 376.26800171 43.35754395 376.92800171 43.35754395 377.60800171 C40.70742118 378.93306309 38.25340573 378.76558123 35.33825684 378.84823608 C26.96747288 379.09838773 20.06754836 380.1100791 12.35754395 383.60800171 C11.36754395 383.93800171 10.37754395 384.26800171 9.35754395 384.60800171 C8.24214422 387.19328247 8.24214422 387.19328247 7.35754395 390.60800171 C7.13195801 391.32214233 6.90637207 392.03628296 6.6739502 392.77206421 C4.78313846 398.78739273 3.34308766 404.85740514 2.00598145 411.01815796 C1.35754395 413.60800171 1.35754395 413.60800171 0.35754395 414.60800171 C-6.89644238 415.73639958 -12.5997781 412.37663996 -18.64245605 408.60800171 C-24.55133799 403.97225058 -28.58454247 398.43698187 -31.64245605 391.60800171 C-32.15226045 390.53520934 -32.66206484 389.46241697 -33.18731785 388.35711575 C-35.47724717 382.15036283 -35.06025098 375.67959877 -35.03013611 369.15342712 C-35.03431245 367.68037906 -35.03979162 366.20733422 -35.04645592 364.73429531 C-35.06088978 360.69931931 -35.05667229 356.66454793 -35.04928911 352.62956083 C-35.04455465 348.27295928 -35.05706971 343.91640182 -35.06730652 339.55981445 C-35.08449417 331.03004492 -35.08533463 322.50034905 -35.08009361 313.9705667 C-35.07605077 307.03718821 -35.07749683 300.10383148 -35.08284187 293.17045403 C-35.0835903 292.18333249 -35.08433872 291.19621095 -35.08510982 290.17917664 C-35.08664131 288.17379149 -35.08817966 286.16840634 -35.08972479 284.1630212 C-35.1034496 265.36119227 -35.09801217 246.55940497 -35.08653957 227.75757699 C-35.07660628 210.55993066 -35.08954957 193.36239189 -35.11347377 176.16476215 C-35.13786076 158.50123039 -35.14747367 140.83774874 -35.14082104 123.17420048 C-35.13732805 113.25943335 -35.13956619 103.34474897 -35.15707207 93.42999458 C-35.17178899 84.99021281 -35.17243609 76.55057205 -35.15500116 68.11079306 C-35.14648477 63.8058427 -35.14435717 59.50114431 -35.15965271 55.19620705 C-35.17349072 51.25263901 -35.16874834 47.30953904 -35.14941347 43.36599814 C-35.14565042 41.942131 -35.14858431 40.51822644 -35.15902513 39.09439261 C-35.21399992 31.02104539 -34.76620352 24.65404493 -30.64245605 17.60800171 C-30.04433105 16.55612671 -29.44620605 15.50425171 -28.82995605 14.42050171 C-21.34613353 4.79844418 -12.15180301 -0.17689663 0 0 Z " fill="#F9F9F5" transform="translate(362.6424560546875,234.39199829101563)"/>
<path d="M0 0 C1.15680267 0.00212242 1.15680267 0.00212242 2.3369751 0.00428772 C4.79239838 0.00987091 7.24772942 0.0224203 9.703125 0.03515625 C11.37109243 0.04017342 13.03906129 0.04473595 14.70703125 0.04882812 C18.78909787 0.05983484 22.87109581 0.07708789 26.953125 0.09765625 C30.65354454 11.19891487 18.65103495 34.1737174 16.953125 39.09765625 C108.528125 38.60265625 108.528125 38.60265625 201.953125 38.09765625 C197.63486943 25.52953941 197.63486943 25.52953941 192.953125 13.09765625 C192.67191258 10.83469218 192.46607611 8.56134963 192.328125 6.28515625 C192.21597656 4.54298828 192.21597656 4.54298828 192.1015625 2.765625 C192.05257813 1.88519531 192.00359375 1.00476563 191.953125 0.09765625 C196.97012404 -0.02637575 201.98622182 -0.11688392 207.00439453 -0.17700195 C208.70963089 -0.2020742 210.41476054 -0.23614139 212.11962891 -0.27954102 C214.57741674 -0.34051941 217.03377861 -0.36862487 219.4921875 -0.390625 C220.24867584 -0.41643143 221.00516418 -0.44223785 221.78457642 -0.46882629 C225.75912034 -0.47091017 228.21381772 -0.09683526 231.36767578 2.42602539 C234.26974872 5.42483409 235.64235711 7.98861476 237.203125 11.84765625 C237.45489502 12.46455322 237.70666504 13.0814502 237.96606445 13.71704102 C239.58646203 17.80407344 240.741152 21.81952251 241.51953125 26.13671875 C241.97969134 28.2178031 242.69217934 29.97495698 243.578125 31.91015625 C244.953125 35.09765625 244.953125 35.09765625 244.953125 39.09765625 C245.92912155 39.08433258 245.92912155 39.08433258 246.92483521 39.07073975 C253.70566002 38.98214791 260.48632004 38.92187252 267.26757812 38.87792969 C269.79726847 38.8578322 272.32691246 38.83054957 274.85644531 38.79589844 C278.49555917 38.74730069 282.134058 38.72466813 285.7734375 38.70703125 C286.90178009 38.68638611 288.03012268 38.66574097 289.19265747 38.64447021 C295.42978567 38.64269358 299.26107133 38.82442444 303.953125 43.09765625 C308.05000623 48.60348161 308.60485373 53.0300164 308.515625 59.78515625 C308.53947266 60.62626953 308.56332031 61.46738281 308.58789062 62.33398438 C308.57338308 68.43198826 308.57338308 68.43198826 305.60546875 71.6171875 C302.21642787 73.50886127 299.6709829 74.22294197 295.84887695 74.21118164 C294.6179406 74.21106834 294.6179406 74.21106834 293.36213684 74.21095276 C292.48079575 74.20579147 291.59945465 74.20063019 290.69140625 74.1953125 C289.78561325 74.19389755 288.87982025 74.1924826 287.94657898 74.19102478 C285.05289409 74.18542626 282.15928651 74.17287406 279.265625 74.16015625 C277.30403758 74.15514106 275.34244894 74.15057818 273.38085938 74.14648438 C268.57158479 74.13545732 263.762368 74.11819372 258.953125 74.09765625 C259.16517578 74.68780518 259.37722656 75.2779541 259.59570312 75.88598633 C260.5530701 78.55898649 261.50317085 81.23451318 262.453125 83.91015625 C262.78699219 84.83892578 263.12085938 85.76769531 263.46484375 86.72460938 C263.78066406 87.61728516 264.09648438 88.50996094 264.421875 89.4296875 C264.71513672 90.25186768 265.00839844 91.07404785 265.31054688 91.92114258 C265.953125 94.09765625 265.953125 94.09765625 265.953125 97.09765625 C266.6914859 97.0887738 267.4298468 97.07989136 268.19058228 97.07073975 C275.16407589 96.99044366 282.13750001 96.92961568 289.11133766 96.89040756 C292.69633401 96.86957202 296.28094694 96.84132974 299.86572266 96.79589844 C303.3281669 96.75229433 306.79024341 96.72848882 310.25294113 96.71814728 C312.21054982 96.70720804 314.16801148 96.67600497 316.12539673 96.64447021 C327.25705598 96.64166945 327.25705598 96.64166945 331.953125 101.09765625 C335.32700635 105.98764884 335.41274975 110.42918025 335.328125 116.16015625 C335.33972656 116.94970703 335.35132813 117.73925781 335.36328125 118.55273438 C335.3401442 123.15315153 335.15799924 126.53305123 331.953125 130.09765625 C325.97623387 133.35886368 320.713582 133.5660516 313.98828125 133.609375 C312.95497177 133.6273262 311.92166229 133.6452774 310.85704041 133.66377258 C307.57660935 133.71768851 304.29632225 133.75171166 301.015625 133.78515625 C298.78318318 133.81834579 296.5507603 133.85283696 294.31835938 133.88867188 C288.86341039 133.97340408 283.40844233 134.04183279 277.953125 134.09765625 C278.23679932 134.98388672 278.52047363 135.87011719 278.81274414 136.78320312 C279.36369751 138.53213867 279.36369751 138.53213867 279.92578125 140.31640625 C280.29195557 141.47076172 280.65812988 142.62511719 281.03540039 143.81445312 C282.48002526 148.9826668 282.89920733 152.92166689 280.703125 157.97265625 C278.16924165 161.0495146 276.08711808 161.95537971 272.1315918 162.45166016 C268.63426322 162.58439312 265.14005049 162.66731478 261.640625 162.72265625 C259.82401367 162.80966797 259.82401367 162.80966797 257.97070312 162.8984375 C249.31601055 163.02160225 249.31601055 163.02160225 245.65625 160.54052734 C241.8649999 156.42565838 239.45569188 151.70379635 237.578125 146.47265625 C237.20880859 145.5290625 237.20880859 145.5290625 236.83203125 144.56640625 C235.35175089 140.66752575 234.65063916 137.28274119 233.953125 133.09765625 C110.698125 133.59265625 110.698125 133.59265625 -15.046875 134.09765625 C-16.366875 138.71765625 -17.686875 143.33765625 -19.046875 148.09765625 C-21.35548969 154.93799607 -23.33295032 158.02731613 -29.39233398 161.88964844 C-34.13444432 164.04765101 -38.63869464 163.63216005 -43.734375 163.22265625 C-44.74048828 163.18140625 -45.74660156 163.14015625 -46.78320312 163.09765625 C-52.70403728 162.73858127 -56.53322065 162.03494015 -61.046875 158.09765625 C-63.83702335 152.51735955 -61.68605675 146.41488677 -60.02734375 140.80078125 C-59.65891357 139.54426758 -59.2904834 138.28775391 -58.91088867 136.99316406 C-58.62576416 136.03764648 -58.34063965 135.08212891 -58.046875 134.09765625 C-58.91011887 134.08552597 -58.91011887 134.08552597 -59.790802 134.07315063 C-65.79337245 133.98693552 -71.79561911 133.88742479 -77.79785156 133.78027344 C-80.03640291 133.74204637 -82.27501437 133.70718264 -84.51367188 133.67578125 C-87.73589526 133.62999477 -90.95770707 133.57202211 -94.1796875 133.51171875 C-95.17678741 133.50016754 -96.17388733 133.48861633 -97.20120239 133.47671509 C-103.57146836 133.34213537 -108.54096274 132.86592721 -113.88671875 129.09375 C-116.97465152 124.81084867 -116.74818526 121.31114222 -116.609375 116.16015625 C-116.62033203 115.27908203 -116.63128906 114.39800781 -116.64257812 113.49023438 C-116.57961181 107.88623268 -115.84106001 104.48070947 -112.046875 100.09765625 C-108.71514863 96.98567452 -106.40575038 96.72961433 -101.90136719 96.75708008 C-100.66038269 96.75730667 -99.41939819 96.75753326 -98.14080811 96.75776672 C-96.79178505 96.77308536 -95.44276569 96.78873332 -94.09375 96.8046875 C-92.7094163 96.8102855 -91.32507664 96.81455464 -89.94073486 96.81755066 C-86.30411253 96.82898353 -82.66785189 96.85843679 -79.03137207 96.8916626 C-75.31783948 96.92239738 -71.60424823 96.93606324 -67.890625 96.95117188 C-60.60921044 96.98330843 -53.32809347 97.03448538 -46.046875 97.09765625 C-45.78132813 96.01226563 -45.51578125 94.926875 -45.2421875 93.80859375 C-44.88554418 92.36324978 -44.5287662 90.91793903 -44.171875 89.47265625 C-43.99785156 88.75980469 -43.82382812 88.04695312 -43.64453125 87.3125 C-42.61833162 83.16969409 -41.45896771 79.13038947 -40.046875 75.09765625 C-41.31805176 75.07783691 -42.58922852 75.05801758 -43.89892578 75.03759766 C-48.62910283 74.96134739 -53.35898005 74.87265996 -58.08886719 74.78027344 C-60.13340319 74.74206386 -62.17800457 74.70719715 -64.22265625 74.67578125 C-67.16690386 74.62995638 -70.11070448 74.57199065 -73.0546875 74.51171875 C-73.9642923 74.50016754 -74.87389709 74.48861633 -75.81106567 74.47671509 C-82.01997744 74.3333358 -86.76509499 73.61884292 -92.046875 70.09765625 C-95.23460201 64.60157519 -95.17406968 60.12087335 -94.421875 53.91015625 C-94.34042236 53.22099121 -94.25896973 52.53182617 -94.17504883 51.82177734 C-93.56896346 47.63842116 -92.78105983 44.36315648 -90.046875 41.09765625 C-85.9667005 39.43215751 -82.52077777 38.85110557 -78.13330078 38.87060547 C-76.99257111 38.87075653 -75.85184143 38.87090759 -74.67654419 38.87106323 C-73.46070648 38.8813858 -72.24486877 38.89170837 -70.9921875 38.90234375 C-69.73550262 38.90517365 -68.47881775 38.90800354 -67.18405151 38.91091919 C-63.85986636 38.92019502 -60.53596076 38.93813244 -57.21185303 38.96032715 C-53.81313479 38.98086813 -50.41438756 38.98993847 -47.015625 39 C-40.35929833 39.02202246 -33.70310279 39.05547192 -27.046875 39.09765625 C-26.89831055 38.16751709 -26.74974609 37.23737793 -26.59667969 36.27905273 C-25.63733894 30.72791186 -23.75501512 25.45630317 -22.046875 20.09765625 C-21.64572707 18.75172103 -21.2460172 17.40535647 -20.84765625 16.05859375 C-20.43562173 14.71722472 -20.02287535 13.37607413 -19.609375 12.03515625 C-19.23941406 10.80667969 -18.86945313 9.57820312 -18.48828125 8.3125 C-16.85328863 4.66589045 -15.40495388 3.20975111 -12.046875 1.09765625 C-8.15028907 -0.3015593 -4.08341744 -0.02829189 0 0 Z " fill="#F9F9F4" transform="translate(403.046875,630.90234375)"/>
<path d="M0 0 C13.5899201 10.69511846 23.83118594 25.69977412 30.11035156 41.60839844 C30.41199219 42.32382812 30.71363281 43.03925781 31.02441406 43.77636719 C35.26495336 54.16354678 35.55286439 65.15861007 35.54785156 76.23339844 C35.54895432 77.29554565 35.54895432 77.29554565 35.55007935 78.37915039 C35.5197553 89.50446177 34.51988896 99.31504258 30.11035156 109.60839844 C29.82144043 110.31931641 29.5325293 111.03023437 29.23486328 111.76269531 C26.10919427 119.44684136 22.72579355 126.68523546 18.11035156 133.60839844 C17.45035156 133.60839844 16.79035156 133.60839844 16.11035156 133.60839844 C15.12035156 136.57839844 15.12035156 136.57839844 14.11035156 139.60839844 C13.45035156 139.60839844 12.79035156 139.60839844 12.11035156 139.60839844 C11.90410156 140.14464844 11.69785156 140.68089844 11.48535156 141.23339844 C9.5778473 144.52817852 7.06215772 147.20203472 4.11035156 149.60839844 C3.45035156 149.60839844 2.79035156 149.60839844 2.11035156 149.60839844 C2.11035156 150.26839844 2.11035156 150.92839844 2.11035156 151.60839844 C-4.51524534 157.16393213 -12.33466171 161.46309651 -19.88964844 165.60839844 C-20.70433594 166.07375 -21.51902344 166.53910156 -22.35839844 167.01855469 C-42.35419561 177.36448139 -70.45467606 177.79427851 -91.68457031 171.32714844 C-110.28016885 165.26587274 -126.74295491 155.82861985 -139.20214844 140.48339844 C-140.24822266 139.21109375 -140.24822266 139.21109375 -141.31542969 137.91308594 C-142.88964844 135.60839844 -142.88964844 135.60839844 -142.88964844 132.60839844 C-143.87964844 132.27839844 -144.86964844 131.94839844 -145.88964844 131.60839844 C-148.13386315 129.04676378 -149.49056575 126.52289751 -150.70214844 123.35839844 C-151.20294922 122.05515625 -151.20294922 122.05515625 -151.71386719 120.72558594 C-152.101875 119.69691406 -152.48988281 118.66824219 -152.88964844 117.60839844 C-153.39567838 116.29831692 -153.90222085 114.98843329 -154.40917969 113.67871094 C-154.94497929 112.28051981 -155.48013528 110.88208187 -156.01464844 109.48339844 C-156.26835205 108.82694336 -156.52205566 108.17048828 -156.78344727 107.49414062 C-165.1092869 85.45693312 -163.25155588 59.36993095 -153.70947266 37.96044922 C-144.56028742 18.70699965 -131.32348906 1.76018204 -112.08886719 -8.24316406 C-110.62946783 -9.00526603 -109.19295252 -9.8129798 -107.78417969 -10.66503906 C-74.70552171 -30.54838539 -29.58009725 -21.78379255 0 0 Z " fill="#F8F8F4" transform="translate(576.8896484375,454.3916015625)"/>
<path d="M0 0 C3.47914941 -0.02887814 6.95826831 -0.04675687 10.4375 -0.0625 C11.92733398 -0.07506836 11.92733398 -0.07506836 13.44726562 -0.08789062 C14.86362305 -0.09272461 14.86362305 -0.09272461 16.30859375 -0.09765625 C17.62041626 -0.10551147 17.62041626 -0.10551147 18.95874023 -0.11352539 C21 0 21 0 22 1 C21.96519531 1.90105469 21.93039062 2.80210937 21.89453125 3.73046875 C21.80637321 7.44570033 21.95158451 10.42585627 23 14 C25.76439468 16.17979318 28.4546025 17.25682064 31.71875 18.55859375 C39.46009319 21.95925522 45.14653299 28.2390442 49.16015625 35.56640625 C50 38 50 38 51 46 C42.75 46 34.5 46 26 46 C24.68 43.03 23.36 40.06 22 37 C19.73856601 33.93124824 18.85933729 33.1361098 15.08984375 32.5390625 C14.04957031 32.56742187 13.00929688 32.59578125 11.9375 32.625 C10.89464844 32.63789063 9.85179687 32.65078125 8.77734375 32.6640625 C5.79137853 32.8135228 5.79137853 32.8135228 3 35 C2.67 35.99 2.34 36.98 2 38 C1.34 38 0.68 38 0 38 C-1.47193773 45.35968863 -2.20235346 50.73961895 1.67701721 57.34553528 C3.92064631 60.15132023 6.92264584 60.89585707 10.2578125 61.7734375 C11.31245193 62.0927977 11.31245193 62.0927977 12.38839722 62.41860962 C15.36995776 63.32081379 18.36775038 64.16184826 21.36621094 65.00585938 C31.53805482 67.91465767 38.69552759 70.91688784 46 79 C46.53898926 79.56928223 47.07797852 80.13856445 47.63330078 80.72509766 C53.47619027 87.24433448 53.94918966 94.54515915 54 103 C53.58002685 105.85072685 52.91481141 108.25556577 52 111 C51.34 111 50.68 111 50 111 C49.89171875 111.74636719 49.7834375 112.49273438 49.671875 113.26171875 C47.91241592 120.43253744 41.41786292 124.68109627 35.4375 128.375 C31.20188123 130.92755777 27.78297969 132.40567344 23 134 C22.67 138.62 22.34 143.24 22 148 C15.43814571 149.64046357 10.26367849 149.5054714 4 147 C3.87882812 146.32453125 3.75765625 145.6490625 3.6328125 144.953125 C3.38144531 143.61507812 3.38144531 143.61507812 3.125 142.25 C2.88136719 140.92742187 2.88136719 140.92742187 2.6328125 139.578125 C2.01338477 137.05453056 1.47016574 135.1445982 0 133 C-1.87765235 132.30260695 -1.87765235 132.30260695 -4.0625 132.125 C-13.5446775 130.34709172 -20.47530791 123.61757544 -26 116 C-28.95467608 110.66318022 -29.59631508 105.01351327 -30 99 C-27.44276771 97.72138385 -25.63262898 97.88663391 -22.7734375 97.90234375 C-21.2265625 97.90717773 -21.2265625 97.90717773 -19.6484375 97.91210938 C-18.02808594 97.92467773 -18.02808594 97.92467773 -16.375 97.9375 C-14.74304688 97.94426758 -14.74304688 97.94426758 -13.078125 97.95117188 C-10.38536211 97.96298224 -7.69270812 97.97945222 -5 98 C-4.56816406 99.22847656 -4.13632812 100.45695313 -3.69140625 101.72265625 C-2.46254341 104.99649695 -1.11403062 107.67091249 1.0625 110.4375 C1.56910156 111.09621094 2.07570313 111.75492188 2.59765625 112.43359375 C4.65818172 114.73518348 5.75584757 114.9826795 8.86328125 115.203125 C10.00152344 115.21859375 11.13976562 115.2340625 12.3125 115.25 C13.44300781 115.27578125 14.57351563 115.3015625 15.73828125 115.328125 C19.38625778 114.96114293 21.16587226 114.30743144 24 112 C26.65494639 107.0599914 27.048925 101.53667895 27 96 C25.42428702 90.99479408 22.44942064 87.72016982 18 85 C13.55955596 83.02646932 9.09438953 81.99594336 4.3125 81.25 C-6.40620845 79.20993381 -16.16200019 73.45275639 -23 65 C-23.52464844 64.43152344 -24.04929687 63.86304688 -24.58984375 63.27734375 C-29.60206305 56.96000363 -28.74388332 48.62676166 -28 41 C-26.97265625 37.5078125 -26.97265625 37.5078125 -26 35 C-25.34 35 -24.68 35 -24 35 C-23.74605469 34.2575 -23.49210937 33.515 -23.23046875 32.75 C-20.18292966 25.93899201 -13.18760646 20.89590036 -7 17 C-3.625 15.75 -3.625 15.75 -1 15 C0.36532549 13.86298403 0.36532549 13.86298403 0.09765625 10.83984375 C0.08605469 9.55207031 0.07445312 8.26429688 0.0625 6.9375 C0.05347656 5.64714844 0.04445313 4.35679687 0.03515625 3.02734375 C0.02355469 2.02832031 0.01195312 1.02929688 0 0 Z " fill="#153429" transform="translate(502,457)"/>
<path d="M0 0 C69.3 0 138.6 0 210 0 C210.99 2.97 211.98 5.94 213 9 C214.65 13.62 216.3 18.24 218 23 C143.75 23 69.5 23 -7 23 C-3 7 -3 7 0 0 Z " fill="#143429" transform="translate(407,705)"/>
<path d="M0 0 C1.08529959 -0.00573832 1.08529959 -0.00573832 2.19252443 -0.01159257 C4.61145624 -0.02189271 7.03014935 -0.01793617 9.44909668 -0.01396179 C11.18554402 -0.01830987 12.92198944 -0.02349334 14.65843201 -0.02944946 C19.37115289 -0.04283906 24.08379357 -0.04341827 28.79652977 -0.04088616 C32.73059056 -0.03981662 36.66463511 -0.04469929 40.59869242 -0.04949158 C49.87842937 -0.06058622 59.15812584 -0.06102414 68.43786621 -0.05497742 C78.01333195 -0.04893401 87.58865089 -0.06125805 97.16409159 -0.08254749 C105.38501883 -0.10015376 113.60589929 -0.10616646 121.82684469 -0.10290974 C126.73702582 -0.1010955 131.64710217 -0.10374734 136.55726624 -0.11762428 C141.17346897 -0.13018248 145.78944242 -0.12827761 150.40564156 -0.11521339 C152.09995666 -0.11284384 153.7942878 -0.11559586 155.48858452 -0.12383652 C157.80116927 -0.13427365 160.11298034 -0.12622839 162.42553711 -0.11352539 C163.71969292 -0.11369313 165.01384872 -0.11386087 166.34722137 -0.1140337 C169.95082717 0.28720257 171.86168065 1.05507025 174.71276855 3.26069641 C175.31213379 5.4054718 175.31213379 5.4054718 175.2713623 7.85835266 C175.26427246 8.742005 175.25718262 9.62565735 175.24987793 10.53608704 C175.20057129 11.91570618 175.20057129 11.91570618 175.15026855 13.32319641 C175.14156738 14.70861633 175.14156738 14.70861633 175.13269043 16.12202454 C175.00771368 22.96575128 175.00771368 22.96575128 172.71276855 25.26069641 C170.30293698 25.46015818 168.00764343 25.53443095 165.59648132 25.52139282 C164.4844 25.52713114 164.4844 25.52713114 163.34985238 25.53298539 C160.85250796 25.54334742 158.35539208 25.53931721 155.85803223 25.53535461 C154.07276699 25.5396994 152.28750362 25.54488177 150.50224304 25.55084229 C145.64265571 25.56427067 140.78314597 25.56480656 135.92354369 25.56227899 C131.87033785 25.56121157 127.81714786 25.56608689 123.7639454 25.57088441 C114.20187122 25.58199351 104.63983631 25.58240955 95.07775879 25.57637024 C85.20754596 25.57033218 75.33747574 25.582634 65.46728724 25.60394031 C57.0001383 25.62154709 48.53303478 25.62755901 40.0658682 25.62430257 C35.00585483 25.62248762 29.94594311 25.62514664 24.88594627 25.63901711 C20.12614987 25.65157531 15.36657583 25.64967037 10.60678291 25.63660622 C8.85925599 25.63423626 7.11171352 25.63699009 5.36420441 25.64522934 C2.97921257 25.65566357 0.59497136 25.64762325 -1.78999329 25.63491821 C-2.48221743 25.6422925 -3.17444157 25.64966678 -3.8876422 25.65726453 C-8.15486946 25.60941644 -10.94398035 24.9677804 -14.28723145 22.26069641 C-14.8458252 19.11616516 -14.8458252 19.11616516 -14.72473145 15.44819641 C-14.70281738 14.2455011 -14.68090332 13.04280579 -14.6583252 11.80366516 C-14.28559886 8.24510951 -13.83801451 5.48953044 -12.28723145 2.26069641 C-8.21659254 0.05582181 -4.5705239 0.00725005 0 0 Z " fill="#16352A" transform="translate(392.2872314453125,299.7393035888672)"/>
<path d="M0 0 C1.07705757 -0.00596161 1.07705757 -0.00596161 2.17587388 -0.01204365 C4.57644662 -0.02165058 6.97642764 -0.00985852 9.37698364 0.00190735 C11.10033386 -0.00052119 12.82368267 -0.00424112 14.54702759 -0.00915527 C19.22481352 -0.01856076 23.90239008 -0.00914093 28.58015966 0.00417686 C33.47761407 0.01549689 38.37505824 0.01138332 43.27252197 0.00942993 C51.49910906 0.00854696 59.72561375 0.01962652 67.95217896 0.03804016 C77.45714502 0.05919375 86.96199026 0.06272064 96.46697509 0.0564782 C105.61490272 0.05077824 114.76278788 0.05643858 123.91070938 0.06765175 C127.80128898 0.07229079 131.69184255 0.07317457 135.58242416 0.0710659 C140.16741617 0.06917868 144.75228568 0.07732028 149.33724976 0.0931263 C151.01781838 0.09735988 152.69839946 0.09822594 154.3789711 0.0954361 C156.67758541 0.0921999 158.97583702 0.10133207 161.27441406 0.11352539 C162.55935194 0.11557826 163.84428982 0.11763113 165.16816521 0.11974621 C168.9890303 0.39013276 172.18102546 1.01801664 175.76419067 2.3742218 C177.79348303 8.46209886 177.18770778 14.46689885 174.76419067 20.3742218 C174.10419067 20.3742218 173.44419067 20.3742218 172.76419067 20.3742218 C172.76419067 21.0342218 172.76419067 21.6942218 172.76419067 22.3742218 C169.06425115 24.72577257 165.8567074 24.62569685 161.5390625 24.62818909 C160.81018361 24.63130907 160.08130472 24.63442905 159.3303386 24.63764358 C156.88747141 24.64562234 154.4448527 24.63930052 152.00198364 24.63301086 C150.25096491 24.63572073 148.49994731 24.63928164 146.74893188 24.64363098 C141.99295941 24.65275638 137.23707361 24.64921045 132.48109961 24.64287281 C127.50922757 24.63781522 122.53736304 24.64250344 117.56549072 24.64564514 C109.21781072 24.64928481 100.87016609 24.64448496 92.52249146 24.63496399 C82.86124175 24.62407232 73.2000764 24.62761019 63.53882873 24.6386168 C55.25172924 24.64768116 46.96465519 24.64897935 38.67755234 24.64373946 C33.72444215 24.64061599 28.77137167 24.64022089 23.81826401 24.64681244 C19.16436546 24.65257317 14.51057615 24.64861248 9.85668945 24.63702393 C8.14499213 24.6343708 6.43328568 24.63515348 4.72159195 24.63954926 C2.39271939 24.6449804 0.06420128 24.63820063 -2.26464844 24.62818909 C-4.22303996 24.62705801 -4.22303996 24.62705801 -6.22099495 24.62590408 C-9.23580933 24.3742218 -9.23580933 24.3742218 -11.23580933 22.3742218 C-12.59135013 18.6508857 -12.51110463 14.7347182 -12.61080933 10.8117218 C-12.64819214 10.13947571 -12.68557495 9.46722961 -12.72409058 8.77461243 C-12.75924683 6.80781555 -12.75924683 6.80781555 -12.23580933 3.3742218 C-8.28200963 0.16019477 -4.98798416 -0.00065154 0 0 Z " fill="#16342A" transform="translate(391.2358093261719,361.6257781982422)"/>
<path d="M0 0 C8.91258865 4.89105475 14.71760685 13.83139064 20.83569336 21.74633789 C24.5534485 26.52185893 28.5457961 30.97861965 32.66015625 35.41796875 C36.31406111 39.45007411 39.64901922 43.71592091 43 48 C44.28907135 49.62705957 45.58077256 51.25203879 46.875 52.875 C47.52210938 53.68710937 48.16921875 54.49921875 48.8359375 55.3359375 C50.44691122 57.31912175 52.07371239 59.27884854 53.7265625 61.2265625 C54.41709717 62.04278076 54.41709717 62.04278076 55.12158203 62.87548828 C56.44143784 64.43098253 57.76745495 65.98124253 59.09375 67.53125 C61 70 61 70 61 72 C61.99 72.33 62.98 72.66 64 73 C64 73.66 64 74.32 64 75 C64.66 75 65.32 75 66 75 C67.2890625 76.609375 67.2890625 76.609375 68.625 78.75 C69.29402344 79.79414063 69.29402344 79.79414063 69.9765625 80.859375 C71 83 71 83 71 87 C62.48111013 87.11594941 53.96255097 87.20474236 45.4430666 87.25906086 C41.48690697 87.28513382 37.53128795 87.32048809 33.57543945 87.37719727 C29.75637198 87.43160179 25.9378238 87.46143786 22.11839867 87.47438622 C20.66270969 87.48361119 19.20704854 87.50162618 17.75158119 87.52865028 C15.70917421 87.56505743 13.66890097 87.56994116 11.6262207 87.56762695 C10.46484085 87.57873001 9.303461 87.58983307 8.10688782 87.60127258 C4.04095033 86.81439617 2.6143307 85.13600237 0 82 C-2.40470585 78.39294122 -2.28267113 75.78799572 -2.25878906 71.62280273 C-2.2622937 70.87455231 -2.26579834 70.12630188 -2.26940918 69.3553772 C-2.27821404 66.88135511 -2.27238241 64.40761876 -2.265625 61.93359375 C-2.26697187 60.21631312 -2.26891258 58.49903286 -2.27142334 56.78175354 C-2.27437279 53.18299733 -2.27008218 49.58434038 -2.26074219 45.9855957 C-2.24933915 41.36614566 -2.25591359 36.74692778 -2.26788712 32.12748623 C-2.27510324 28.5819574 -2.27281909 25.03648391 -2.26763153 21.49095345 C-2.26629479 19.78725215 -2.26794361 18.08354587 -2.27259064 16.37985039 C-2.27765278 14.00236509 -2.26995068 11.62525964 -2.25878906 9.24780273 C-2.26283752 8.53969955 -2.26688599 7.83159637 -2.27105713 7.10203552 C-2.22853091 2.22853091 -2.22853091 2.22853091 0 0 Z " fill="#F8F8F4" transform="translate(628,248)"/>
<path d="M0 0 C0.66 0.66 1.32 1.32 2 2 C0.05635566 11.07034027 -3.66533963 18.87134658 -8 27 C-8.72896484 28.40765625 -8.72896484 28.40765625 -9.47265625 29.84375 C-13.52674263 37.5227994 -18.20799503 44.76778585 -23 52 C-23.53367187 52.80695312 -24.06734375 53.61390625 -24.6171875 54.4453125 C-25.68509884 56.00610599 -26.83159654 57.51294105 -28 59 C-28.66 59 -29.32 59 -30 59 C-30 59.66 -30 60.32 -30 61 C-30.66 61 -31.32 61 -32 61 C-32.28875 61.598125 -32.5775 62.19625 -32.875 62.8125 C-34 65 -34 65 -36 68 C-36.66 68 -37.32 68 -38 68 C-38 68.66 -38 69.32 -38 70 C-38.66 70 -39.32 70 -40 70 C-40 70.66 -40 71.32 -40 72 C-40.66 72 -41.32 72 -42 72 C-42 72.66 -42 73.32 -42 74 C-42.66 74 -43.32 74 -44 74 C-44 74.66 -44 75.32 -44 76 C-44.66 76 -45.32 76 -46 76 C-46 76.66 -46 77.32 -46 78 C-46.66 78 -47.32 78 -48 78 C-48 78.66 -48 79.32 -48 80 C-48.66 80 -49.32 80 -50 80 C-50 80.66 -50 81.32 -50 82 C-50.66 82 -51.32 82 -52 82 C-52 82.66 -52 83.32 -52 84 C-54.1171875 85.7265625 -54.1171875 85.7265625 -56.875 87.625 C-58.23238281 88.57246094 -58.23238281 88.57246094 -59.6171875 89.5390625 C-62 91 -62 91 -64 91 C-64 91.66 -64 92.32 -64 93 C-64.99 93 -65.98 93 -67 93 C-67 93.66 -67 94.32 -67 95 C-67.53367187 95.29132813 -68.06734375 95.58265625 -68.6171875 95.8828125 C-72.81931643 98.19471043 -76.96651157 100.56680472 -81.0625 103.0625 C-93.7078877 110.66151404 -93.7078877 110.66151404 -99 110 C-99 110.66 -99 111.32 -99 112 C-99.71027344 112.20496094 -100.42054688 112.40992188 -101.15234375 112.62109375 C-102.07144531 112.89050781 -102.99054687 113.15992188 -103.9375 113.4375 C-105.31228516 113.83775391 -105.31228516 113.83775391 -106.71484375 114.24609375 C-108.9402493 114.79026051 -108.9402493 114.79026051 -110 116 C-112.33297433 116.04092937 -114.66705225 116.04241723 -117 116 C-117 116.66 -117 117.32 -117 118 C-119.05078125 118.22786458 -121.1015625 118.45572917 -123.15234375 118.68359375 C-125.01140229 118.81886614 -125.01140229 118.81886614 -126 120 C-127.5778125 120.2165625 -127.5778125 120.2165625 -129.1875 120.4375 C-132.85239508 120.83221903 -132.85239508 120.83221903 -135.54382324 121.99633789 C-140.40024312 123.40662589 -145.07367449 123.47912486 -150.11132812 123.62109375 C-151.31140755 123.65883408 -152.51148697 123.6965744 -153.74793243 123.73545837 C-174.31351673 124.31904945 -194.90307824 124.10579107 -215.47423744 124.06846237 C-221.86526796 124.05828596 -228.25630197 124.05492888 -234.64733887 124.05102539 C-245.43986445 124.04371872 -256.23238238 124.03365393 -267.02490234 124.02050781 C-267.7056739 124.01968 -268.38644546 124.01885219 -269.08784646 124.01799929 C-275.24520245 124.01047544 -281.40255812 124.00269798 -287.55991364 123.99479675 C-307.46702194 123.96925757 -327.37412727 123.94817178 -347.28125 123.9375 C-349.23081407 123.93635748 -349.23081407 123.93635748 -351.21976328 123.93519187 C-395.0872944 123.91164372 -438.94326214 124.20904305 -482.80661082 124.79603541 C-501.16651708 125.03974589 -519.52669429 125.12747454 -537.88803148 125.18087077 C-540.17240515 125.18764048 -542.4567752 125.19522857 -544.74114609 125.20287514 C-546.22800433 125.20748467 -547.7148627 125.21205558 -549.20172119 125.21658325 C-550.50361515 125.22065248 -551.80550911 125.22472172 -553.1468544 125.22891426 C-566.056238 125.23419732 -578.916923 124.82975022 -591.8046875 124.11328125 C-592.54619175 124.07433432 -593.287696 124.03538738 -594.05167007 123.99526024 C-596.14441927 123.88252618 -598.23593735 123.75686024 -600.32763672 123.6262207 C-601.52186249 123.55409866 -602.71608826 123.48197662 -603.94650269 123.40766907 C-606.82192877 123.02377409 -608.51472752 122.4060569 -611 121 C-613.58532701 120.54935368 -613.58532701 120.54935368 -616.25 120.375 C-617.14203125 120.30023437 -618.0340625 120.22546875 -618.953125 120.1484375 C-619.62859375 120.09945312 -620.3040625 120.05046875 -621 120 C-621 119.34 -621 118.68 -621 118 C-623.64 118 -626.28 118 -629 118 C-629 117.34 -629 116.68 -629 116 C-630.010625 116.061875 -631.02125 116.12375 -632.0625 116.1875 C-636.38927621 115.98146304 -639.11194174 114.83398975 -643 113 C-644.32276056 112.62691369 -645.65232077 112.26953585 -647 112 C-647 111.34 -647 110.68 -647 110 C-648.32 110 -649.64 110 -651 110 C-651 109.34 -651 108.68 -651 108 C-652.28777344 107.84724609 -652.28777344 107.84724609 -653.6015625 107.69140625 C-657.28495755 106.94202588 -660.05023208 105.67376769 -663.375 103.9375 C-664.43460938 103.38964844 -665.49421875 102.84179688 -666.5859375 102.27734375 C-667.38257813 101.85582031 -668.17921875 101.43429687 -669 101 C-669 100.34 -669 99.68 -669 99 C-669.99 99 -670.98 99 -672 99 C-672 98.34 -672 97.68 -672 97 C-672.99 97 -673.98 97 -675 97 C-675 96.34 -675 95.68 -675 95 C-675.99 95 -676.98 95 -678 95 C-678 94.34 -678 93.68 -678 93 C-678.61875 92.855625 -679.2375 92.71125 -679.875 92.5625 C-682 92 -682 92 -684 91 C-684 90.34 -684 89.68 -684 89 C-684.69480469 88.7834375 -685.38960937 88.566875 -686.10546875 88.34375 C-689.80686172 86.62542452 -692.36119496 84.27558943 -695.3125 81.5 C-695.86228516 81.00113281 -696.41207031 80.50226563 -696.97851562 79.98828125 C-698.36326881 78.70501929 -699.68719343 77.35677617 -701 76 C-701 75.34 -701 74.68 -701 74 C-701.639375 73.731875 -702.27875 73.46375 -702.9375 73.1875 C-705 72 -705 72 -706 69 C-706.66 69 -707.32 69 -708 69 C-708 68.01 -708 67.02 -708 66 C-709.32 65.67 -710.64 65.34 -712 65 C-712 64.01 -712 63.02 -712 62 C-712.66 62 -713.32 62 -714 62 C-714.66 60.35 -715.32 58.7 -716 57 C-716.66 57 -717.32 57 -718 57 C-718 56.34 -718 55.68 -718 55 C-718.66 55 -719.32 55 -720 55 C-720 53.68 -720 52.36 -720 51 C-720.66 51 -721.32 51 -722 51 C-722 50.34 -722 49.68 -722 49 C-722.66 49 -723.32 49 -724 49 C-725.55078125 46.69140625 -725.55078125 46.69140625 -727.3125 43.5625 C-727.92867187 42.47582031 -728.54484375 41.38914062 -729.1796875 40.26953125 C-729.78039062 39.19058594 -730.38109375 38.11164062 -731 37 C-731.51820313 36.07574219 -732.03640625 35.15148437 -732.5703125 34.19921875 C-733.72145426 32.13703051 -734.86505924 30.07113613 -736 28 C-735.34 28 -734.68 28 -734 28 C-733.34 27.34 -732.68 26.68 -732 26 C-726.05437434 36.64055337 -726.05437434 36.64055337 -724.375 40.9375 C-722.92948816 44.15704909 -721.46995428 45.53906016 -719 48 C-717.12465864 50.57562706 -715.36021904 53.20954235 -713.5859375 55.85546875 C-712.17601667 58.1008371 -712.17601667 58.1008371 -710 59 C-710 59.66 -710 60.32 -710 61 C-709.34 61 -708.68 61 -708 61 C-706.66796875 62.57421875 -706.66796875 62.57421875 -705.1875 64.6875 C-701.27290918 70.26028211 -696.32810111 74.6791657 -691.3125 79.25 C-690.35988281 80.12140625 -689.40726563 80.9928125 -688.42578125 81.890625 C-686.1979846 84.00493863 -686.1979846 84.00493863 -684 85 C-684 85.66 -684 86.32 -684 87 C-683.278125 87.2475 -682.55625 87.495 -681.8125 87.75 C-679 89 -679 89 -676.875 90.8125 C-673.27865668 93.54884818 -669.47982774 95.10873541 -665.328125 96.8515625 C-663 98 -663 98 -662 100 C-653.62985147 105.46137351 -643.43998322 108.00758702 -634 111 C-634 111.66 -634 112.32 -634 113 C-632.0509375 113.185625 -632.0509375 113.185625 -630.0625 113.375 C-617.19786096 114.80213904 -617.19786096 114.80213904 -615 117 C-612.77854367 117.28387779 -610.55682352 117.44765173 -608.32421875 117.62109375 C-606 118 -606 118 -604.32864118 119.00732458 C-601.05630799 120.40228605 -597.91425586 120.2794907 -594.41752243 120.26171303 C-593.26081689 120.26770712 -593.26081689 120.26770712 -592.08074355 120.27382231 C-589.48156027 120.28484248 -586.88258826 120.28158885 -584.28338623 120.2784729 C-582.40727218 120.28347316 -580.5311603 120.28934815 -578.65505147 120.29602563 C-573.48776339 120.31187233 -568.32052962 120.31525888 -563.15322018 120.31667423 C-557.58539713 120.32036015 -552.01760415 120.33551154 -546.44979858 120.34928894 C-536.79924584 120.37159107 -527.14870376 120.38658658 -517.4981308 120.39665604 C-503.54492837 120.41122539 -489.59176306 120.43675728 -475.63858238 120.46498732 C-453.00190261 120.51048707 -430.36521871 120.54710578 -407.72851562 120.578125 C-385.73566755 120.60828305 -363.74283248 120.64261884 -341.75 120.68261719 C-341.07222472 120.68384819 -340.39444944 120.68507919 -339.69613552 120.6863475 C-332.88971029 120.69871423 -326.08328522 120.71116597 -319.27686026 120.72367998 C-262.18459182 120.82863955 -205.0923075 120.91925259 -148 121 C-148 120.34 -148 119.68 -148 119 C-147.35562988 118.92483154 -146.71125977 118.84966309 -146.04736328 118.7722168 C-143.07207494 118.41981693 -140.0986157 118.05373576 -137.125 117.6875 C-135.60519531 117.51057617 -135.60519531 117.51057617 -134.0546875 117.33007812 C-128.18656835 116.59656323 -122.75455618 115.50637753 -117.15185547 113.59692383 C-115 113 -115 113 -111 113 C-111 112.34 -111 111.68 -111 111 C-110.47156494 110.8141333 -109.94312988 110.6282666 -109.39868164 110.43676758 C-96.77326492 106.10389292 -96.77326492 106.10389292 -84.92578125 100.05078125 C-82.05155974 98.48249406 -79.00887109 97.6795173 -75.84765625 96.87109375 C-73.82743036 96.15450345 -73.82743036 96.15450345 -73.06640625 94.08203125 C-71.58393462 91.18768188 -69.78353909 90.62730263 -66.875 89.25 C-62.01168791 86.73274459 -58.60483415 83.98989802 -54.89453125 80 C-53.02774162 78.029286 -51.07838854 76.30592495 -49 74.5625 C-45.14860481 71.27435233 -41.91290318 67.59926096 -38.6640625 63.72265625 C-38.11492188 63.15417969 -37.56578125 62.58570313 -37 62 C-36.34 62 -35.68 62 -35 62 C-34.7525 61.278125 -34.505 60.55625 -34.25 59.8125 C-32.61601177 56.13602647 -30.67796581 52.83898291 -27 51 C-26.67 50.01 -26.34 49.02 -26 48 C-25.34 48 -24.68 48 -24 48 C-23.71125 47.071875 -23.4225 46.14375 -23.125 45.1875 C-22 42 -22 42 -20 39 C-19.34 39 -18.68 39 -18 39 C-17.855625 38.21625 -17.71125 37.4325 -17.5625 36.625 C-17 34 -17 34 -16 32 C-15.34 32 -14.68 32 -14 32 C-13.81630859 31.17242188 -13.81630859 31.17242188 -13.62890625 30.328125 C-12.92006389 27.70408745 -11.96388744 25.2663047 -10.9375 22.75 C-10.57527344 21.85796875 -10.21304688 20.9659375 -9.83984375 20.046875 C-9.56269531 19.37140625 -9.28554688 18.6959375 -9 18 C-8.34 18 -7.68 18 -7 18 C-7 16.68 -7 15.36 -7 14 C-6.34 14 -5.68 14 -5 14 C-4.80664062 13.15695312 -4.61328125 12.31390625 -4.4140625 11.4453125 C-4.02347656 9.80175781 -4.02347656 9.80175781 -3.625 8.125 C-3.36976563 7.03445313 -3.11453125 5.94390625 -2.8515625 4.8203125 C-2 2 -2 2 0 0 Z " fill="#010D0A" transform="translate(884,767)"/>
<path d="M0 0 C0.33 0.66 0.66 1.32 1 2 C0.67 2.99 0.34 3.98 0 5 C-0.09804954 7.56113016 -0.13935105 10.0949892 -0.13422108 12.65623474 C-0.13657331 13.44753957 -0.13892554 14.2388444 -0.14134905 15.05412817 C-0.14805061 17.72807494 -0.14758047 20.40197325 -0.14717102 23.07592773 C-0.15046898 25.00363267 -0.1541944 26.93133691 -0.1583125 28.85904026 C-0.16834931 34.17432127 -0.17205203 39.48959099 -0.17470181 44.80488014 C-0.17860016 50.53122057 -0.18817915 56.25755201 -0.19691467 61.98388672 C-0.21669752 75.82638219 -0.22674986 89.66887841 -0.23564246 103.51138449 C-0.2400244 110.03103782 -0.24539164 116.55069033 -0.25063133 123.07034302 C-0.26764921 144.74793851 -0.28216618 166.42553306 -0.28938007 188.10313416 C-0.28985483 189.50555056 -0.29033072 190.90796697 -0.29080774 192.31038338 C-0.29104411 193.00584798 -0.29128049 193.70131259 -0.29152403 194.41785188 C-0.2927252 197.94132834 -0.29394066 201.4648048 -0.29516602 204.98828125 C-0.29540617 205.68752423 -0.29564632 206.38676722 -0.29589374 207.10719939 C-0.30377697 229.75022001 -0.32718553 252.39318809 -0.35972196 275.03618579 C-0.39407468 298.98707304 -0.41373539 322.93792823 -0.41702431 346.88884068 C-0.41918699 359.93950748 -0.42789966 372.99009715 -0.45348549 386.04074097 C-0.47523644 397.16112474 -0.48322147 408.28141266 -0.47351871 419.4018153 C-0.4689861 425.07096087 -0.47079949 430.73990886 -0.49028015 436.4090271 C-0.50799991 441.61093579 -0.50684302 446.81250406 -0.49138286 452.01441681 C-0.48902004 453.88477812 -0.4932605 455.75516355 -0.50521151 457.62548816 C-0.61212347 475.47996826 1.63651198 496.13209756 10.171875 512.20703125 C11.54060493 515.17046068 10.59751793 517.89290675 10 521 C9.67 519.68 9.34 518.36 9 517 C8.34 517 7.68 517 7 517 C4.19604328 510.56655615 2.17385088 504.21493265 0.61328125 497.37109375 C0.22960994 495.06043897 0.22960994 495.06043897 -1 494 C-1.31923492 491.9427083 -1.51161352 489.88386479 -1.71875 487.8125 C-1.81998043 485.9832467 -1.81998043 485.9832467 -3 485 C-3.21158966 482.53733145 -3.37617784 480.09227116 -3.5 477.625 C-3.75276441 472.23644863 -3.75276441 472.23644863 -5 467 C-5.09518934 464.54224469 -5.13396024 462.11319527 -5.12584114 459.65547848 C-5.12729458 458.8979131 -5.12874802 458.14034772 -5.13024551 457.35982582 C-5.13391834 454.80081276 -5.13041315 452.24185878 -5.12698364 449.68284607 C-5.12813495 447.83789621 -5.12972254 445.99294658 -5.13171089 444.14799744 C-5.13590282 439.06212704 -5.13381412 433.9762753 -5.13072467 428.89040482 C-5.12847026 423.4118392 -5.13195038 417.93327688 -5.13470459 412.45471191 C-5.13916075 401.71612717 -5.13818653 390.9775494 -5.13529195 380.23896437 C-5.13303743 371.51527175 -5.1327256 362.79158109 -5.13381577 354.06788826 C-5.133969 352.8282857 -5.13412223 351.58868314 -5.13428011 350.31151687 C-5.13459982 347.79363393 -5.13492403 345.275751 -5.1352527 342.75786806 C-5.13802557 319.79960169 -5.13514569 296.84133842 -5.1299101 273.88307281 C-5.12516371 252.91040913 -5.12558941 231.93775152 -5.13037109 210.96508789 C-5.13572175 187.41802361 -5.1378329 163.87096191 -5.13475883 140.32389694 C-5.13444027 137.81536329 -5.1341259 135.30682963 -5.13381577 132.79829597 C-5.13366149 131.56390507 -5.13350721 130.32951417 -5.13334826 129.05771748 C-5.13248313 120.33925811 -5.1339459 111.62080088 -5.13629532 102.90234184 C-5.13909342 92.28508064 -5.13835482 81.66782684 -5.13301457 71.05056649 C-5.13037778 65.6286553 -5.12937214 60.20675646 -5.13266373 54.78484535 C-5.1356271 49.8288024 -5.13403318 44.87278334 -5.12868617 39.91674257 C-5.12756217 38.11667421 -5.1281528 36.31660386 -5.13056196 34.51653676 C-5.13356989 32.0838886 -5.1305173 29.65132405 -5.12584114 27.21868038 C-5.12818231 26.50764954 -5.13052347 25.7966187 -5.13293558 25.06404147 C-5.1141504 20.22830079 -5.1141504 20.22830079 -4 18 C-3.80144272 14.58775644 -3.65393953 11.18238664 -3.5703125 7.765625 C-3.48581302 5.83622018 -3.25172734 3.91477844 -3 2 C-2.01 1.34 -1.02 0.68 0 0 Z " fill="#0A2119" transform="translate(136,269)"/>
<path d="M0 0 C0.99 0 1.98 0 3 0 C3.02286371 58.96644082 3.04049889 117.93288149 3.05106533 176.89932581 C3.05231272 183.85288714 3.05360927 190.80644845 3.05493164 197.76000977 C3.0550624 198.45199117 3.05519316 199.14397258 3.05532788 199.85692312 C3.05959304 222.30627246 3.06710718 244.75561928 3.07629722 267.20496709 C3.08598693 290.91786251 3.0919936 314.63075582 3.09408849 338.34365326 C3.09546406 352.55752953 3.09981648 366.7713986 3.10791647 380.98527265 C3.11318191 390.71788656 3.11480476 400.45049673 3.11350138 410.18311196 C3.11285768 415.80740584 3.11387906 421.43168711 3.11920547 427.05597878 C3.12403793 432.19589584 3.12433967 437.33579168 3.12089889 442.47570968 C3.12047305 444.34381784 3.12177007 446.21192727 3.12488318 448.08003288 C3.12884463 450.60208512 3.12676499 453.12405878 3.12304783 455.64610958 C3.12698835 456.75638697 3.12698835 456.75638697 3.13100848 457.8890942 C3.1141458 462.8858542 3.1141458 462.8858542 2 464 C1.79224439 465.66204487 1.63281745 467.33029491 1.5 469 C1.11111111 473.88888889 1.11111111 473.88888889 0 475 C-0.36760731 477.32817964 -0.70241581 479.6618385 -1 482 C-2.65 482.33 -4.3 482.66 -6 483 C-5.80083984 482.14728516 -5.80083984 482.14728516 -5.59765625 481.27734375 C-4.74003893 477.52761546 -3.92950668 473.81701953 -3.4375 470 C-3 467 -3 467 -2 466 C-1.15900782 460.60338392 -0.85350973 455.32439077 -0.8613348 449.86286163 C-0.85849258 449.08035573 -0.85565036 448.29784983 -0.85272202 447.49163163 C-0.84442117 444.8779145 -0.84311045 442.26424196 -0.84178162 439.6505127 C-0.83721313 437.75444863 -0.83221268 435.85838556 -0.82681805 433.96232367 C-0.81326027 428.75847985 -0.80582542 423.55464256 -0.79939139 418.35078573 C-0.79137708 412.73668754 -0.77768285 407.12260286 -0.76467896 401.5085144 C-0.74293085 391.78382288 -0.72478026 382.05912997 -0.70907402 372.33442688 C-0.68636024 358.27414247 -0.65821949 344.21387304 -0.62875474 330.15360135 C-0.58109734 307.34166501 -0.53781969 284.52972333 -0.49731445 261.71777344 C-0.45795726 239.55826337 -0.41653296 217.39875874 -0.37231445 195.23925781 C-0.37095192 194.55603241 -0.36958939 193.87280702 -0.36818558 193.16887782 C-0.35450003 186.30755753 -0.34077251 179.44623734 -0.32701423 172.5849172 C-0.2116628 115.05662293 -0.1033909 57.52831694 0 0 Z " fill="#0C251E" transform="translate(888,286)"/>
<path d="M0 0 C0.99 0.99 0.99 0.99 2 2 C0.05635566 11.07034027 -3.66533963 18.87134658 -8 27 C-8.48597656 27.9384375 -8.97195313 28.876875 -9.47265625 29.84375 C-13.52674263 37.5227994 -18.20799503 44.76778585 -23 52 C-23.53367187 52.80695312 -24.06734375 53.61390625 -24.6171875 54.4453125 C-25.68509884 56.00610599 -26.83159654 57.51294105 -28 59 C-28.66 59 -29.32 59 -30 59 C-30 59.66 -30 60.32 -30 61 C-30.66 61 -31.32 61 -32 61 C-32.28875 61.598125 -32.5775 62.19625 -32.875 62.8125 C-34 65 -34 65 -36 68 C-36.66 68 -37.32 68 -38 68 C-38 68.66 -38 69.32 -38 70 C-38.66 70 -39.32 70 -40 70 C-40 70.66 -40 71.32 -40 72 C-40.66 72 -41.32 72 -42 72 C-42 72.66 -42 73.32 -42 74 C-42.66 74 -43.32 74 -44 74 C-44 74.66 -44 75.32 -44 76 C-44.66 76 -45.32 76 -46 76 C-46 76.66 -46 77.32 -46 78 C-46.66 78 -47.32 78 -48 78 C-48 78.66 -48 79.32 -48 80 C-48.66 80 -49.32 80 -50 80 C-50 80.66 -50 81.32 -50 82 C-50.66 82 -51.32 82 -52 82 C-52 82.66 -52 83.32 -52 84 C-54.1171875 85.7265625 -54.1171875 85.7265625 -56.875 87.625 C-57.77992188 88.25664063 -58.68484375 88.88828125 -59.6171875 89.5390625 C-62 91 -62 91 -64 91 C-64 91.66 -64 92.32 -64 93 C-64.99 93 -65.98 93 -67 93 C-67 93.66 -67 94.32 -67 95 C-67.53367187 95.29132813 -68.06734375 95.58265625 -68.6171875 95.8828125 C-72.81931643 98.19471043 -76.96651157 100.56680472 -81.0625 103.0625 C-93.7078877 110.66151404 -93.7078877 110.66151404 -99 110 C-99 110.66 -99 111.32 -99 112 C-99.71027344 112.20496094 -100.42054688 112.40992188 -101.15234375 112.62109375 C-102.07144531 112.89050781 -102.99054687 113.15992188 -103.9375 113.4375 C-104.85402344 113.70433594 -105.77054688 113.97117187 -106.71484375 114.24609375 C-108.9402493 114.79026051 -108.9402493 114.79026051 -110 116 C-112.33297433 116.04092937 -114.66705225 116.04241723 -117 116 C-117 116.66 -117 117.32 -117 118 C-119.05078125 118.22786458 -121.1015625 118.45572917 -123.15234375 118.68359375 C-125.01140229 118.81886614 -125.01140229 118.81886614 -126 120 C-128.33333333 120.33333333 -130.66666667 120.66666667 -133 121 C-133.495 121.495 -133.495 121.495 -134 122 C-136.18639453 122.07258946 -138.37500389 122.08373783 -140.5625 122.0625 C-141.76003906 122.05347656 -142.95757813 122.04445313 -144.19140625 122.03515625 C-145.58166016 122.01775391 -145.58166016 122.01775391 -147 122 C-147.33 121.01 -147.66 120.02 -148 119 C-147.35562988 118.92483154 -146.71125977 118.84966309 -146.04736328 118.7722168 C-143.07207494 118.41981693 -140.0986157 118.05373576 -137.125 117.6875 C-136.11179687 117.56955078 -135.09859375 117.45160156 -134.0546875 117.33007812 C-128.18656835 116.59656323 -122.75455618 115.50637753 -117.15185547 113.59692383 C-115 113 -115 113 -111 113 C-111 112.34 -111 111.68 -111 111 C-110.20734741 110.72119995 -110.20734741 110.72119995 -109.39868164 110.43676758 C-96.77326492 106.10389292 -96.77326492 106.10389292 -84.92578125 100.05078125 C-82.05155974 98.48249406 -79.00887109 97.6795173 -75.84765625 96.87109375 C-73.82743036 96.15450345 -73.82743036 96.15450345 -73.06640625 94.08203125 C-71.58393462 91.18768188 -69.78353909 90.62730263 -66.875 89.25 C-62.01168791 86.73274459 -58.60483415 83.98989802 -54.89453125 80 C-53.02774162 78.029286 -51.07838854 76.30592495 -49 74.5625 C-45.14860481 71.27435233 -41.91290318 67.59926096 -38.6640625 63.72265625 C-38.11492187 63.15417969 -37.56578125 62.58570313 -37 62 C-36.34 62 -35.68 62 -35 62 C-34.7525 61.278125 -34.505 60.55625 -34.25 59.8125 C-32.61601177 56.13602647 -30.67796581 52.83898291 -27 51 C-26.67 50.01 -26.34 49.02 -26 48 C-25.34 48 -24.68 48 -24 48 C-23.71125 47.071875 -23.4225 46.14375 -23.125 45.1875 C-22 42 -22 42 -20 39 C-19.34 39 -18.68 39 -18 39 C-17.7834375 37.824375 -17.7834375 37.824375 -17.5625 36.625 C-17 34 -17 34 -16 32 C-15.34 32 -14.68 32 -14 32 C-13.87753906 31.44828125 -13.75507812 30.8965625 -13.62890625 30.328125 C-12.92006389 27.70408745 -11.96388744 25.2663047 -10.9375 22.75 C-10.57527344 21.85796875 -10.21304688 20.9659375 -9.83984375 20.046875 C-9.56269531 19.37140625 -9.28554688 18.6959375 -9 18 C-8.34 18 -7.68 18 -7 18 C-7 16.68 -7 15.36 -7 14 C-6.34 14 -5.68 14 -5 14 C-4.80664062 13.15695312 -4.61328125 12.31390625 -4.4140625 11.4453125 C-4.15367187 10.34960938 -3.89328125 9.25390625 -3.625 8.125 C-3.36976563 7.03445313 -3.11453125 5.94390625 -2.8515625 4.8203125 C-2 2 -2 2 0 0 Z " fill="#051712" transform="translate(884,767)"/>
<path d="M0 0 C2.23975898 2.89693377 4.22578994 5.86964371 6.125 9 C6.64320313 9.845625 7.16140625 10.69125 7.6953125 11.5625 C9 14 9 14 9.4296875 16.0625 C10.23562728 18.8004872 11.95534433 20.04023075 14 22 C15.87534136 24.57562706 17.63978096 27.20954235 19.4140625 29.85546875 C20.82398333 32.1008371 20.82398333 32.1008371 23 33 C23 33.66 23 34.32 23 35 C23.66 35 24.32 35 25 35 C26.33203125 36.57421875 26.33203125 36.57421875 27.8125 38.6875 C31.72709082 44.26028211 36.67189889 48.6791657 41.6875 53.25 C42.64011719 54.12140625 43.59273437 54.9928125 44.57421875 55.890625 C46.8020154 58.00493863 46.8020154 58.00493863 49 59 C49 59.66 49 60.32 49 61 C49.721875 61.2475 50.44375 61.495 51.1875 61.75 C54 63 54 63 56.125 64.8125 C59.72134332 67.54884818 63.52017226 69.10873541 67.671875 70.8515625 C70 72 70 72 71 74 C79.37014853 79.46137351 89.56001678 82.00758702 99 85 C99 85.66 99 86.32 99 87 C100.9490625 87.185625 100.9490625 87.185625 102.9375 87.375 C115.80213904 88.80213904 115.80213904 88.80213904 118 91 C119.37149254 91.15892832 120.74781491 91.2769631 122.125 91.375 C126.61890122 91.81360476 129.95924122 93.0226074 134 95 C134 95.33 134 95.66 134 96 C132.18757948 96.02687279 130.37504767 96.04633715 128.5625 96.0625 C127.55316406 96.07410156 126.54382813 96.08570313 125.50390625 96.09765625 C123 96 123 96 122 95 C120.31816052 94.76712992 118.6287584 94.58735834 116.9375 94.4375 C115.55884766 94.31181641 115.55884766 94.31181641 114.15234375 94.18359375 C113.44207031 94.12300781 112.73179687 94.06242188 112 94 C112 93.34 112 92.68 112 92 C109.36 92 106.72 92 104 92 C104 91.34 104 90.68 104 90 C102.989375 90.061875 101.97875 90.12375 100.9375 90.1875 C96.61072379 89.98146304 93.88805826 88.83398975 90 87 C88.67723944 86.62691369 87.34767923 86.26953585 86 86 C86 85.34 86 84.68 86 84 C84.68 84 83.36 84 82 84 C82 83.34 82 82.68 82 82 C80.71222656 81.84724609 80.71222656 81.84724609 79.3984375 81.69140625 C75.71504245 80.94202588 72.94976792 79.67376769 69.625 77.9375 C68.56539063 77.38964844 67.50578125 76.84179688 66.4140625 76.27734375 C65.61742187 75.85582031 64.82078125 75.43429687 64 75 C64 74.34 64 73.68 64 73 C63.01 73 62.02 73 61 73 C61 72.34 61 71.68 61 71 C60.01 71 59.02 71 58 71 C58 70.34 58 69.68 58 69 C57.01 69 56.02 69 55 69 C55 68.34 55 67.68 55 67 C54.38125 66.855625 53.7625 66.71125 53.125 66.5625 C51 66 51 66 49 65 C49 64.34 49 63.68 49 63 C48.30519531 62.7834375 47.61039063 62.566875 46.89453125 62.34375 C43.19313828 60.62542452 40.63880504 58.27558943 37.6875 55.5 C37.13771484 55.00113281 36.58792969 54.50226562 36.02148438 53.98828125 C34.63673119 52.70501929 33.31280657 51.35677617 32 50 C32 49.34 32 48.68 32 48 C31.360625 47.731875 30.72125 47.46375 30.0625 47.1875 C28 46 28 46 27 43 C26.34 43 25.68 43 25 43 C25 42.01 25 41.02 25 40 C23.68 39.67 22.36 39.34 21 39 C21 38.01 21 37.02 21 36 C20.34 36 19.68 36 19 36 C18.34 34.35 17.68 32.7 17 31 C16.34 31 15.68 31 15 31 C15 30.34 15 29.68 15 29 C14.34 29 13.68 29 13 29 C13 27.68 13 26.36 13 25 C12.34 25 11.68 25 11 25 C11 24.34 11 23.68 11 23 C10.34 23 9.68 23 9 23 C7.44921875 20.69140625 7.44921875 20.69140625 5.6875 17.5625 C5.07132813 16.47582031 4.45515625 15.38914062 3.8203125 14.26953125 C3.21960938 13.19058594 2.61890625 12.11164062 2 11 C1.48179687 10.07574219 0.96359375 9.15148437 0.4296875 8.19921875 C-0.72145426 6.13703051 -1.86505924 4.07113613 -3 2 C-2.34 2 -1.68 2 -1 2 C-0.67 1.34 -0.34 0.68 0 0 Z " fill="#051812" transform="translate(151,793)"/>
<path d="M0 0 C0.88179778 -0.00199105 1.76359556 -0.0039821 2.67211449 -0.00603348 C4.13415442 -0.00166422 4.13415442 -0.00166422 5.62573051 0.00279331 C6.65649456 0.00193889 7.6872586 0.00108446 8.74925792 0.00020415 C12.22558601 -0.00145148 15.70186654 0.00407208 19.17819023 0.00952244 C21.66121227 0.00980432 24.1442344 0.00964656 26.62725639 0.00907993 C31.98456377 0.00885174 37.34185615 0.01170004 42.69915962 0.01731777 C50.44497897 0.02543486 58.19079243 0.02804821 65.93661557 0.02930576 C78.50282087 0.03149595 91.0690197 0.03815515 103.63522148 0.04760838 C115.84420553 0.05678334 128.05318781 0.06386376 140.26217461 0.06811619 C141.39047076 0.06851027 141.39047076 0.06851027 142.54156078 0.06891232 C146.31500546 0.07021733 150.08845015 0.07148104 153.86189485 0.07272422 C185.18071026 0.08309581 216.49951762 0.10078742 247.81832695 0.12304783 C247.48832695 1.11304783 247.15832695 2.10304783 246.81832695 3.12304783 C214.87645912 3.16863551 182.93460051 3.20404778 150.99270777 3.22517849 C147.22494536 3.22768002 143.45718301 3.23026865 139.6894207 3.23291111 C138.56424117 3.23369804 138.56424117 3.23369804 137.41633074 3.23450087 C125.25736886 3.24321255 113.09842582 3.2589867 100.93947513 3.27735342 C88.47090983 3.29603128 76.00235441 3.30716006 63.53377569 3.31122482 C55.83489533 3.31397428 48.13606821 3.32267005 40.43720423 3.33888076 C34.54189921 3.35066445 28.64662179 3.35196454 22.75130463 3.34926319 C20.32685518 3.34981585 17.90240381 3.35382608 15.47796631 3.36145878 C12.18115726 3.37133344 8.88458049 3.36904422 5.58776665 3.36355686 C4.61696431 3.36938254 3.64616197 3.37520823 2.64594138 3.38121045 C1.76762699 3.37722835 0.8893126 3.37324625 -0.01561737 3.36914349 C-0.77733635 3.36990293 -1.53905534 3.37066237 -2.32385671 3.37144482 C-4.18167305 3.12304783 -4.18167305 3.12304783 -6.18167305 1.12304783 C-3.8712421 -0.03216765 -2.57046744 -0.0012763 0 0 Z " fill="#B9C5BD" transform="translate(356.18167304992676,234.87695217132568)"/>
<path d="M0 0 C1 4 1 4 0 6 C108.405 5.505 108.405 5.505 219 5 C219 3.35 219 1.7 219 0 C221 2 221 2 223 8 C148.75 8 74.5 8 -2 8 C-1.34 5.36 -0.68 2.72 0 0 Z " fill="#0C271D" transform="translate(402,720)"/>
<path d="M0 0 C2.32789515 2.83395931 3.07377893 4.29511572 4 8 C-57.38 8 -118.76 8 -182 8 C-181.34 5.69 -180.68 3.38 -180 1 C-179.67 1.99 -179.34 2.98 -179 4 C-179.33 4.66 -179.66 5.32 -180 6 C-120.27 5.67 -60.54 5.34 1 5 C0.67 3.35 0.34 1.7 0 0 Z " fill="#051F13" transform="translate(602,662)"/>
<path d="M0 0 C1 4 1 4 0 6 C72.6 6 145.2 6 220 6 C220 6.33 220 6.66 220 7 C146.74 7.33 73.48 7.66 -2 8 C-1.34 5.36 -0.68 2.72 0 0 Z " fill="#011B10" transform="translate(402,720)"/>
<path d="M0 0 C1.31238144 0.00222061 2.62476288 0.00444122 3.97691345 0.00672913 C4.6988237 0.0065831 5.42073395 0.00643707 6.16452026 0.00628662 C8.56156879 0.00698583 10.95854054 0.01477857 13.35557556 0.02259827 C15.0132442 0.02446242 16.67091338 0.02588633 18.32858276 0.02688599 C22.69996145 0.03071139 27.07130712 0.04054186 31.44267273 0.05158997 C35.89996392 0.0618036 40.35726043 0.0663835 44.81455994 0.07142639 C53.56652824 0.08216412 62.31846968 0.0992408 71.07041931 0.12025452 C70.08041931 0.45025452 69.09041931 0.78025452 68.07041931 1.12025452 C68.07041931 1.78025452 68.07041931 2.44025452 68.07041931 3.12025452 C65.1745228 3.14731897 62.27888136 3.16712481 59.38291931 3.18275452 C58.15798767 3.19532288 58.15798767 3.19532288 56.90830994 3.20814514 C52.78829367 3.22482537 49.11367574 2.97838351 45.07041931 2.12025452 C44.41041931 2.45025452 43.75041931 2.78025452 43.07041931 3.12025452 C41.63098045 3.21970108 40.1871006 3.25854704 38.74424744 3.26551819 C37.84992004 3.27189804 36.95559265 3.27827789 36.03416443 3.28485107 C35.06644104 3.2859639 34.09871765 3.28707672 33.10166931 3.28822327 C32.11042053 3.29155167 31.11917175 3.29488007 30.09788513 3.29830933 C27.99970464 3.30337744 25.90151607 3.30571769 23.80332947 3.30555725 C20.58363163 3.30774554 17.36427531 3.32590747 14.14463806 3.34486389 C12.10948299 3.3477974 10.07432628 3.34978248 8.03916931 3.35072327 C6.58758423 3.36150154 6.58758423 3.36150154 5.10667419 3.37249756 C4.2123468 3.36942093 3.31801941 3.3663443 2.39659119 3.36317444 C1.60764465 3.36459946 0.81869812 3.36602448 0.00584412 3.36749268 C-1.92958069 3.12025452 -1.92958069 3.12025452 -3.92958069 1.12025452 C-2.92958069 0.12025452 -2.92958069 0.12025452 0 0 Z " fill="#102D26" transform="translate(665.9295806884766,132.87974548339844)"/>
<path d="M0 0 C0.69277542 0.65030685 1.38555084 1.30061371 2.09931946 1.97062683 C5.54854408 4.38377223 7.245669 4.49179049 11.41088867 4.4699707 C13.3226313 4.47435905 13.3226313 4.47435905 15.272995 4.47883606 C16.65466015 4.4617257 18.03631812 4.44402683 19.41796875 4.42578125 C20.84092247 4.42085459 22.26388269 4.41755751 23.68684387 4.41581726 C26.66180276 4.40819256 29.63627787 4.38767529 32.61108398 4.35668945 C36.42780179 4.31700742 40.24420604 4.29906162 44.06110668 4.28938007 C47.7009366 4.27941972 51.34068982 4.25953315 54.98046875 4.23828125 C55.67622702 4.2348855 56.37198528 4.23148975 57.08882713 4.2279911 C59.05168932 4.21643897 61.01449977 4.19691671 62.97729492 4.17700195 C64.0947258 4.16715775 65.21215668 4.15731354 66.3634491 4.14717102 C68.97845311 4.17605244 68.97845311 4.17605244 71 3 C71 4.32 71 5.64 71 7 C62.48111013 7.11594941 53.96255097 7.20474236 45.4430666 7.25906086 C41.48690697 7.28513382 37.53128795 7.32048809 33.57543945 7.37719727 C29.75637198 7.43160179 25.9378238 7.46143786 22.11839867 7.47438622 C20.66270969 7.48361119 19.20704854 7.50162618 17.75158119 7.52865028 C15.70917421 7.56505743 13.66890097 7.56994116 11.6262207 7.56762695 C9.88415092 7.58428154 9.88415092 7.58428154 8.10688782 7.60127258 C4.06022612 6.81812659 2.54819702 5.16349697 0 2 C0 1.34 0 0.68 0 0 Z " fill="#F4F5F2" transform="translate(628,328)"/>
<path d="M0 0 C20.13 0 40.26 0 61 0 C60.67 0.66 60.34 1.32 60 2 C59.43152344 1.98839844 58.86304688 1.97679687 58.27734375 1.96484375 C57.50519531 1.95582031 56.73304688 1.94679687 55.9375 1.9375 C54.80634766 1.92009766 54.80634766 1.92009766 53.65234375 1.90234375 C50.90850846 1.95003978 50.90850846 1.95003978 47.86694336 2.49780273 C43.6944912 3.03967622 39.67595478 3.14417397 35.4765625 3.1328125 C34.68978119 3.13376923 33.90299988 3.13472595 33.09237671 3.13571167 C31.44358235 3.13638785 29.79478524 3.13457307 28.14599609 3.13037109 C25.61159402 3.12497144 23.07736569 3.13035707 20.54296875 3.13671875 C18.93749961 3.13605871 17.33203057 3.1347791 15.7265625 3.1328125 C14.96622711 3.13483673 14.20589172 3.13686096 13.42251587 3.13894653 C8.11498043 3.11498043 8.11498043 3.11498043 7 2 C4.67182036 1.63239269 2.3381615 1.29758419 0 1 C0 0.67 0 0.34 0 0 Z " fill="#122F24" transform="translate(289,133)"/>
<path d="M0 0 C0.66 0.33 1.32 0.66 2 1 C1.67 1.33 1.34 1.66 1 2 C0.87225155 4.40939516 0.81478436 6.77749676 0.8125 9.1875 C0.79123047 11.15783203 0.79123047 11.15783203 0.76953125 13.16796875 C0.98976324 16.82979223 1.66402464 19.60461599 3 23 C-0.87411431 21.53050837 -2.17559981 19.66929926 -4 16 C-4.43359375 13.02734375 -4.43359375 13.02734375 -4.4375 9.9375 C-4.45683594 8.91527344 -4.47617187 7.89304687 -4.49609375 6.83984375 C-3.89002471 3.3704564 -2.67089376 2.20547068 0 0 Z " fill="#ACB3AF" transform="translate(379,363)"/>
<path d="M0 0 C8.91 0 17.82 0 27 0 C26.01 1.485 26.01 1.485 25 3 C22.90869141 3.38818359 22.90869141 3.38818359 20.3515625 3.3984375 C19.42859375 3.40230469 18.505625 3.40617188 17.5546875 3.41015625 C16.10449219 3.39275391 16.10449219 3.39275391 14.625 3.375 C13.18640625 3.39240234 13.18640625 3.39240234 11.71875 3.41015625 C10.79320312 3.40628906 9.86765625 3.40242187 8.9140625 3.3984375 C8.0679541 3.39505371 7.2218457 3.39166992 6.35009766 3.38818359 C4 3 4 3 0 0 Z " fill="#102E26" transform="translate(464,133)"/>
<path d="M0 0 C7.26 0 14.52 0 22 0 C18.07644279 1.9617786 17.08761288 2.09969788 13 2 C12.195625 2.165 11.39125 2.33 10.5625 2.5 C6.9114237 3.21240513 3.39137959 3.69568979 0 2 C0 1.34 0 0.68 0 0 Z " fill="#0F2C27" transform="translate(548,133)"/>
<path d="M0 0 C3.29043773 3.07815142 4.86823183 4.9652543 5.16796875 9.59375 C5.17441406 10.5528125 5.18085938 11.511875 5.1875 12.5 C5.20167969 13.4590625 5.21585937 14.418125 5.23046875 15.40625 C5 18 5 18 3 21 C2.95101563 20.23816406 2.90203125 19.47632813 2.8515625 18.69140625 C2.38661304 12.27029384 1.56139657 6.24558627 0 0 Z " fill="#A7AFAA" transform="translate(406,586)"/>
<path d="M0 0 C0.66 0.33 1.32 0.66 2 1 C1.67 1.33 1.34 1.66 1 2 C0.76636119 3.84891946 0.58696365 5.70488031 0.4375 7.5625 C0.35371094 8.57441406 0.26992188 9.58632813 0.18359375 10.62890625 C0.12300781 11.41136719 0.06242187 12.19382812 0 13 C-0.66 12.01 -1.32 11.02 -2 10 C-2.66 10.66 -3.32 11.32 -4 12 C-4.49230769 4.61538462 -4.49230769 4.61538462 -2 1.5 C-1.34 1.005 -0.68 0.51 0 0 Z " fill="#A0A8A4" transform="translate(379,363)"/>
<path d="M0 0 C0.99 0.495 0.99 0.495 2 1 C2.6328125 3.28515625 2.6328125 3.28515625 3.125 6.0625 C3.29257812 6.98160156 3.46015625 7.90070312 3.6328125 8.84765625 C3.75398438 9.55792969 3.87515625 10.26820313 4 11 C5.65 11.33 7.3 11.66 9 12 C9 12.33 9 12.66 9 13 C6.03 12.67 3.06 12.34 0 12 C0 8.04 0 4.08 0 0 Z " fill="#ABB2AD" transform="translate(503,593)"/>
<path d="M0 0 C0.99 0.33 1.98 0.66 3 1 C2.67 1.99 2.34 2.98 2 4 C1.93197033 5.72795352 1.91504355 7.45835365 1.9375 9.1875 C1.95103516 10.53908203 1.95103516 10.53908203 1.96484375 11.91796875 C1.97644531 12.60503906 1.98804688 13.29210937 2 14 C1.01 14 0.02 14 -1 14 C-1.93402724 8.58264203 -2.20808081 5.19548425 0 0 Z " fill="#B9BDB9" transform="translate(378,426)"/>
<path d="M0 0 C1.32 0.33 2.64 0.66 4 1 C3.01 1.495 3.01 1.495 2 2 C1.52381188 4.87182587 1.15832403 7.67120147 0.875 10.5625 C0.78863281 11.36880859 0.70226562 12.17511719 0.61328125 13.00585938 C0.40056372 15.00304064 0.19922145 17.00142737 0 19 C-0.33 19 -0.66 19 -1 19 C-1.22397733 16.95999027 -1.42848537 14.91783811 -1.625 12.875 C-1.74101562 11.73804688 -1.85703125 10.60109375 -1.9765625 9.4296875 C-2.00112837 5.83488201 -1.32167811 3.319329 0 0 Z " fill="#B6BCB6" transform="translate(378,301)"/>
<path d="M0 0 C-4.57315053 3.5931897 -7.89385682 5.20670406 -13.75 5.625 C-14.73484375 5.69976563 -15.7196875 5.77453125 -16.734375 5.8515625 C-17.48203125 5.90054688 -18.2296875 5.94953125 -19 6 C-16.26999329 3.26999329 -13.08654533 2.48902094 -9.5 1.3125 C-8.81035156 1.07466797 -8.12070312 0.83683594 -7.41015625 0.59179688 C-2.24786849 -1.12393424 -2.24786849 -1.12393424 0 0 Z " fill="#09211B" transform="translate(792,873)"/>
<path d="M0 0 C0.66 0 1.32 0 2 0 C2.05391993 1.79133978 2.09275571 3.58313899 2.125 5.375 C2.14820313 6.37273437 2.17140625 7.37046875 2.1953125 8.3984375 C2 11 2 11 0 13 C-2.125 12.625 -2.125 12.625 -4 12 C-3.01 11.34 -2.02 10.68 -1 10 C-0.41810734 7.57478506 -0.41810734 7.57478506 -0.3125 4.875 C-0.21388672 3.50988281 -0.21388672 3.50988281 -0.11328125 2.1171875 C-0.07589844 1.41851562 -0.03851563 0.71984375 0 0 Z " fill="#E2E6E3" transform="translate(501,460)"/>
<path d="M0 0 C4.62 0 9.24 0 14 0 C14.33 0.99 14.66 1.98 15 3 C12.66705225 3.04241723 10.33297433 3.04092937 8 3 C7.67 2.67 7.34 2.34 7 2 C4.67182036 1.63239269 2.3381615 1.29758419 0 1 C0 0.67 0 0.34 0 0 Z " fill="#09271D" transform="translate(289,133)"/>
<path d="M0 0 C0.33 0.66 0.66 1.32 1 2 C0.67 2.66 0.34 3.32 0 4 C-0.99 4 -1.98 4 -3 4 C-3.33 7.96 -3.66 11.92 -4 16 C-4.33 16 -4.66 16 -5 16 C-5.13496251 13.89758397 -5.23197307 11.7927039 -5.3125 9.6875 C-5.37050781 8.51574219 -5.42851562 7.34398437 -5.48828125 6.13671875 C-5 3 -5 3 -2.48046875 1.08203125 C-1.66191406 0.72496094 -0.84335937 0.36789062 0 0 Z " fill="#0F2218" transform="translate(384,362)"/>
<path d="M0 0 C0.66 0.33 1.32 0.66 2 1 C1.67 1.66 1.34 2.32 1 3 C0.34 3 -0.32 3 -1 3 C-1.226875 3.7425 -1.45375 4.485 -1.6875 5.25 C-3.24407532 8.51139591 -5.08518854 9.92894975 -8 12 C-8.66 11.67 -9.32 11.34 -10 11 C-9.50628906 10.51789062 -9.01257813 10.03578125 -8.50390625 9.5390625 C-7.86324219 8.90742187 -7.22257813 8.27578125 -6.5625 7.625 C-5.92441406 6.99851562 -5.28632812 6.37203125 -4.62890625 5.7265625 C-2.92117824 4.08276939 -2.92117824 4.08276939 -2 2 C-1.34 2 -0.68 2 0 2 C0 1.34 0 0.68 0 0 Z " fill="#091B13" transform="translate(591,592)"/>
<path d="M0 0 C1.18771723 3.42943519 0.80226223 5.37784675 -0.4375 8.75 C-0.86869141 9.94882812 -0.86869141 9.94882812 -1.30859375 11.171875 C-1.65083984 12.07679688 -1.65083984 12.07679688 -2 13 C-3.47717605 8.2771977 -2.18614967 4.37229933 0 0 Z " fill="#061D13" transform="translate(531,555)"/>
<path d="M0 0 C5.75 1.875 5.75 1.875 8 3 C7.67 3.66 7.34 4.32 7 5 C4.69 4.67 2.38 4.34 0 4 C0 2.68 0 1.36 0 0 Z " fill="#09211A" transform="translate(213,862)"/>
<path d="M0 0 C1.875 0.3125 1.875 0.3125 4 1 C6 4 6 4 5.625 6.1875 C5.41875 6.785625 5.2125 7.38375 5 8 C2.98863724 5.44008376 1.37154504 2.95409701 0 0 Z " fill="#04130F" transform="translate(156,808)"/>
<path d="M0 0 C0 3.61537605 -0.89229241 5.11165997 -3 8 C-3.99 8 -4.98 8 -6 8 C-4.55746343 4.63408134 -2.66735273 2.48952921 0 0 Z " fill="#0C1C15" transform="translate(695,632)"/>
<path d="M0 0 C0.33 1.32 0.66 2.64 1 4 C-2.96 3.67 -6.92 3.34 -11 3 C-11 2.67 -11 2.34 -11 2 C-10.28972656 1.93941406 -9.57945312 1.87882812 -8.84765625 1.81640625 C-7.46900391 1.69072266 -7.46900391 1.69072266 -6.0625 1.5625 C-5.14597656 1.48128906 -4.22945312 1.40007812 -3.28515625 1.31640625 C-1.03840268 1.23955024 -1.03840268 1.23955024 0 0 Z " fill="#D6DAD5" transform="translate(698,331)"/>
<path d="M0 0 C-1 2 -1 2 -4.0625 3.125 C-5.5165625 3.558125 -5.5165625 3.558125 -7 4 C-7 3.01 -7 2.02 -7 1 C-3.375 -1.125 -3.375 -1.125 0 0 Z " fill="#020E0C" transform="translate(795,873)"/>
<path d="M0 0 C2.29633824 3.44450737 2.54016485 5.93812283 3 10 C1 9 1 9 -0.1875 6.125 C-1 3 -1 3 0 0 Z " fill="#DDE3E0" transform="translate(681,767)"/>
<path d="M0 0 C0.33 0.99 0.66 1.98 1 3 C-1.33333333 7.66666667 -1.33333333 7.66666667 -4 9 C-2.94124926 5.59687262 -1.99097846 2.98646769 0 0 Z " fill="#ADB5B0" transform="translate(625,579)"/>
</svg>
