<?xml version="1.0" encoding="UTF-8"?>
<svg version="1.1" xmlns="http://www.w3.org/2000/svg" width="1024" height="1024">
<path d="M0 0 C337.92 0 675.84 0 1024 0 C1024 337.92 1024 675.84 1024 1024 C686.08 1024 348.16 1024 0 1024 C0 686.08 0 348.16 0 0 Z " fill="#123026" transform="translate(0,0)"/>
<path d="M0 0 C1.03603945 -0.00497769 2.07207891 -0.00995538 3.13951349 -0.01508391 C6.5921791 -0.02561538 10.04363916 -0.00055413 13.49621582 0.02450562 C15.97864898 0.02427881 18.46108276 0.02186283 20.94351196 0.01742554 C26.97270613 0.01231761 33.00143339 0.03021039 39.0305298 0.05858882 C46.05052574 0.09049485 53.07045842 0.09484214 60.09051639 0.09778075 C72.60961824 0.10383736 85.1285577 0.13291901 97.64758301 0.1758728 C109.80188315 0.21753909 121.95610704 0.2458251 134.11047363 0.25790405 C134.8602666 0.25865227 135.61005957 0.25940048 136.38257354 0.26017137 C139.39620978 0.26314553 142.40984605 0.26608283 145.42348239 0.26895765 C158.40100163 0.28167606 171.37850381 0.30543666 184.356004 0.33059591 C186.45946996 0.33457969 188.56293625 0.33829764 190.66640282 0.34194994 C198.64293336 0.35604978 206.61941543 0.37558745 214.59591293 0.40342712 C217.0175567 0.41117474 219.43920654 0.41722518 221.86085892 0.42150497 C225.1509277 0.42768292 228.44091402 0.44001562 231.73095703 0.45410156 C232.70242408 0.45459932 233.67389113 0.45509708 234.67479658 0.45560992 C235.54905303 0.46068446 236.42330947 0.465759 237.32405853 0.47098732 C238.08431634 0.47331796 238.84457416 0.47564861 239.62787008 0.47804987 C241.35754395 0.60800171 241.35754395 0.60800171 242.35754395 1.60800171 C242.46145562 4.28317486 242.50115719 6.93336997 242.49938965 9.60922241 C242.50460129 10.8679995 242.50460129 10.8679995 242.50991821 12.15220642 C242.51729198 13.98286076 242.52262868 15.81352414 242.52620888 17.64418983 C242.53336579 20.55026623 242.54903098 23.45617292 242.56755066 26.36219788 C242.62002462 34.62810799 242.66790377 42.89393097 242.68347168 51.16000366 C242.6936117 56.2123295 242.72309911 61.26423692 242.76479149 66.31639671 C242.77703309 68.23508714 242.78223537 70.15383691 242.77999306 72.07256508 C242.76823312 85.43312082 242.92984534 98.86398198 252.8145752 109.11972046 C260.74251576 116.49066286 269.47005278 119.67439793 280.1673584 119.81332397 C281.16331779 119.82817337 281.16331779 119.82817337 282.17939758 119.84332275 C284.35983799 119.87474597 286.54030014 119.8996187 288.7208252 119.92440796 C290.23826137 119.94499409 291.75569201 119.96599098 293.27311707 119.98738098 C297.25639357 120.04243044 301.23972035 120.09191483 305.2230835 120.14022827 C309.29203741 120.19056878 313.36091881 120.24618918 317.42980957 120.30136108 C325.40565961 120.40873302 333.38157054 120.51022404 341.35754395 120.60800171 C341.42607363 152.60038986 341.47912031 184.59275701 341.51073993 216.58520148 C341.51449177 220.36754126 341.51837477 224.1498809 341.52233887 227.93222046 C341.5231258 228.68517365 341.52391273 229.43812684 341.52472351 230.2138968 C341.53775529 242.38416416 341.56139677 254.55438875 341.58900233 266.72463079 C341.61711868 279.2248929 341.63373334 291.72513269 341.63980943 304.22542512 C341.64391299 311.93044206 341.65684431 319.63533804 341.68129335 327.34031771 C341.69911903 333.26186599 341.70089391 339.18335317 341.69686699 345.10492897 C341.69768882 347.52434213 341.70360932 349.9437601 341.71516037 352.36314583 C341.80059768 371.18975929 341.73958143 388.60791207 328.35754395 403.35800171 C320.69587441 410.51663233 311.40029959 415.4578566 300.7598877 415.24472046 C297.31254645 414.33103489 295.79982136 413.2504658 293.35754395 410.60800171 C292.0015707 407.38018372 291.14933597 404.06089711 290.29504395 400.67050171 C288.53896714 393.84787277 287.17901257 388.70195225 281.49035645 384.09628296 C275.69810886 380.70432474 270.34539611 379.77523389 263.6895752 379.16268921 C260.06963053 378.56007239 257.50130634 377.48028687 254.35754395 375.60800171 C252.11735873 371.12763128 253.00945917 365.23033532 254.35754395 360.54550171 C254.68754395 359.57612671 255.01754395 358.60675171 255.35754395 357.60800171 C256.01754395 357.60800171 256.67754395 357.60800171 257.35754395 357.60800171 C257.44004395 356.76237671 257.52254395 355.91675171 257.60754395 355.04550171 C258.32552081 351.75477441 259.46275529 349.61467854 261.1817627 346.76425171 C268.19240901 333.90751826 270.31332421 319.83878319 271.60754395 305.48300171 C271.69995361 304.49388794 271.79236328 303.50477417 271.88757324 302.48568726 C272.45298453 295.41072215 272.13973606 288.65530032 271.35754395 281.60800171 C271.28342285 280.89096069 271.20930176 280.17391968 271.13293457 279.43515015 C269.94975846 268.51049068 267.98663242 258.38412205 263.1270752 248.48300171 C262.35754395 246.60800171 262.35754395 246.60800171 262.35754395 243.60800171 C261.69754395 243.60800171 261.03754395 243.60800171 260.35754395 243.60800171 C259.94504395 242.71339233 259.53254395 241.81878296 259.10754395 240.89706421 C255.34803842 232.94782805 251.19818968 226.25144536 245.35754395 219.60800171 C244.79293457 218.92350952 244.2283252 218.23901733 243.64660645 217.53378296 C224.41601223 194.55638283 195.05579719 180.16061548 165.34484863 177.42251587 C145.31092116 175.92243912 124.66397907 176.70255711 106.07752991 185.08776855 C96.81127686 189.21807165 89.24202566 190.41370983 78.99035645 190.12362671 C77.57607091 190.10728218 76.16174734 190.09398226 74.74740601 190.08352661 C71.07106586 190.04974594 67.3962764 189.98152476 63.72064209 189.90341187 C57.82069095 189.78370411 51.91995524 189.71670024 46.01919174 189.65187836 C43.97998803 189.62433095 41.94160495 189.58112954 39.90274048 189.53530884 C28.82632575 189.32000586 28.82632575 189.32000586 18.35754395 192.60800171 C17.44815354 195.33617293 17.16545321 197.15509948 17.10754395 199.98300171 C17.0817627 200.73323608 17.05598145 201.48347046 17.02941895 202.25643921 C17.47319244 205.43681592 18.31472426 207.11818467 20.35754395 209.60800171 C23.54561478 210.82163899 23.54561478 210.82163899 27.17004395 211.48300171 C33.88766841 213.19005237 36.55387363 215.02928524 40.35754395 220.60800171 C41.74973145 221.81456421 41.74973145 221.81456421 43.17004395 223.04550171 C46.00381659 226.36506395 46.46334622 229.35680112 46.35754395 233.60800171 C45.60190941 236.62397513 44.40809456 239.35264205 43.10754395 242.17050171 C42.79430176 242.88657593 42.48105957 243.60265015 42.1583252 244.34042358 C40.7376041 247.57978558 39.27094916 250.79540832 37.78723145 254.00643921 C26.39733274 282.69902556 27.90926201 316.80710677 39.99035645 344.90878296 C41.68791781 348.26025412 43.72099898 351.10801869 46.12316895 353.98690796 C49.47150462 358.38424753 48.80524907 364.36985179 48.35754395 369.60800171 C46.85754395 373.29550171 46.85754395 373.29550171 45.35754395 375.60800171 C44.69754395 375.60800171 44.03754395 375.60800171 43.35754395 375.60800171 C43.35754395 376.26800171 43.35754395 376.92800171 43.35754395 377.60800171 C40.70742118 378.93306309 38.25340573 378.76558123 35.33825684 378.84823608 C26.96747288 379.09838773 20.06754836 380.1100791 12.35754395 383.60800171 C11.36754395 383.93800171 10.37754395 384.26800171 9.35754395 384.60800171 C8.24214422 387.19328247 8.24214422 387.19328247 7.35754395 390.60800171 C7.13195801 391.32214233 6.90637207 392.03628296 6.6739502 392.77206421 C4.78313846 398.78739273 3.34308766 404.85740514 2.00598145 411.01815796 C1.35754395 413.60800171 1.35754395 413.60800171 0.35754395 414.60800171 C-6.89644238 415.73639958 -12.5997781 412.37663996 -18.64245605 408.60800171 C-24.55133799 403.97225058 -28.58454247 398.43698187 -31.64245605 391.60800171 C-32.15226045 390.53520934 -32.66206484 389.46241697 -33.18731785 388.35711575 C-35.47724717 382.15036283 -35.06025098 375.67959877 -35.03013611 369.15342712 C-35.03431245 367.68037906 -35.03979162 366.20733422 -35.04645592 364.73429531 C-35.06088978 360.69931931 -35.05667229 356.66454793 -35.04928911 352.62956083 C-35.04455465 348.27295928 -35.05706971 343.91640182 -35.06730652 339.55981445 C-35.08449417 331.03004492 -35.08533463 322.50034905 -35.08009361 313.9705667 C-35.07605077 307.03718821 -35.07749683 300.10383148 -35.08284187 293.17045403 C-35.0835903 292.18333249 -35.08433872 291.19621095 -35.08510982 290.17917664 C-35.08664131 288.17379149 -35.08817966 286.16840634 -35.08972479 284.1630212 C-35.1034496 265.36119227 -35.09801217 246.55940497 -35.08653957 227.75757699 C-35.07660628 210.55993066 -35.08954957 193.36239189 -35.11347377 176.16476215 C-35.13786076 158.50123039 -35.14747367 140.83774874 -35.14082104 123.17420048 C-35.13732805 113.25943335 -35.13956619 103.34474897 -35.15707207 93.42999458 C-35.17178899 84.99021281 -35.17243609 76.55057205 -35.15500116 68.11079306 C-35.14648477 63.8058427 -35.14435717 59.50114431 -35.15965271 55.19620705 C-35.17349072 51.25263901 -35.16874834 47.30953904 -35.14941347 43.36599814 C-35.14565042 41.942131 -35.14858431 40.51822644 -35.15902513 39.09439261 C-35.21399992 31.02104539 -34.76620352 24.65404493 -30.64245605 17.60800171 C-30.04433105 16.55612671 -29.44620605 15.50425171 -28.82995605 14.42050171 C-21.34613353 4.79844418 -12.15180301 -0.17689663 0 0 Z " fill="#F9F9F5" transform="translate(362.6424560546875,234.39199829101563)"/>
<path d="M0 0 C1.15680267 0.00212242 1.15680267 0.00212242 2.3369751 0.00428772 C4.79239838 0.00987091 7.24772942 0.0224203 9.703125 0.03515625 C11.37109243 0.04017342 13.03906129 0.04473595 14.70703125 0.04882812 C18.78909787 0.05983484 22.87109581 0.07708789 26.953125 0.09765625 C30.65354454 11.19891487 18.65103495 34.1737174 16.953125 39.09765625 C108.528125 38.60265625 108.528125 38.60265625 201.953125 38.09765625 C197.63486943 25.52953941 197.63486943 25.52953941 192.953125 13.09765625 C192.67191258 10.83469218 192.46607611 8.56134963 192.328125 6.28515625 C192.21597656 4.54298828 192.21597656 4.54298828 192.1015625 2.765625 C192.05257813 1.88519531 192.00359375 1.00476563 191.953125 0.09765625 C196.97012404 -0.02637575 201.98622182 -0.11688392 207.00439453 -0.17700195 C208.70963089 -0.2020742 210.41476054 -0.23614139 212.11962891 -0.27954102 C214.57741674 -0.34051941 217.03377861 -0.36862487 219.4921875 -0.390625 C220.24867584 -0.41643143 221.00516418 -0.44223785 221.78457642 -0.46882629 C225.75912034 -0.47091017 228.21381772 -0.09683526 231.36767578 2.42602539 C234.26974872 5.42483409 235.64235711 7.98861476 237.203125 11.84765625 C237.45489502 12.46455322 237.70666504 13.0814502 237.96606445 13.71704102 C239.58646203 17.80407344 240.741152 21.81952251 241.51953125 26.13671875 C241.97969134 28.2178031 242.69217934 29.97495698 243.578125 31.91015625 C244.953125 35.09765625 244.953125 35.09765625 244.953125 39.09765625 C245.92912155 39.08433258 245.92912155 39.08433258 246.92483521 39.07073975 C253.70566002 38.98214791 260.48632004 38.92187252 267.26757812 38.87792969 C269.79726847 38.8578322 272.32691246 38.83054957 274.85644531 38.79589844 C278.49555917 38.74730069 282.134058 38.72466813 285.7734375 38.70703125 C286.90178009 38.68638611 288.03012268 38.66574097 289.19265747 38.64447021 C295.42978567 38.64269358 299.26107133 38.82442444 303.953125 43.09765625 C308.05000623 48.60348161 308.60485373 53.0300164 308.515625 59.78515625 C308.53947266 60.62626953 308.56332031 61.46738281 308.58789062 62.33398438 C308.57338308 68.43198826 308.57338308 68.43198826 305.60546875 71.6171875 C302.21642787 73.50886127 299.6709829 74.22294197 295.84887695 74.21118164 C294.6179406 74.21106834 294.6179406 74.21106834 293.36213684 74.21095276 C292.48079575 74.20579147 291.59945465 74.20063019 290.69140625 74.1953125 C289.78561325 74.19389755 288.87982025 74.1924826 287.94657898 74.19102478 C285.05289409 74.18542626 282.15928651 74.17287406 279.265625 74.16015625 C277.30403758 74.15514106 275.34244894 74.15057818 273.38085938 74.14648438 C268.57158479 74.13545732 263.762368 74.11819372 258.953125 74.09765625 C259.16517578 74.68780518 259.37722656 75.2779541 259.59570312 75.88598633 C260.5530701 78.55898649 261.50317085 81.23451318 262.453125 83.91015625 C262.78699219 84.83892578 263.12085938 85.76769531 263.46484375 86.72460938 C263.78066406 87.61728516 264.09648438 88.50996094 264.421875 89.4296875 C264.71513672 90.25186768 265.00839844 91.07404785 265.31054688 91.92114258 C265.953125 94.09765625 265.953125 94.09765625 265.953125 97.09765625 C266.6914859 97.0887738 267.4298468 97.07989136 268.19058228 97.07073975 C275.16407589 96.99044366 282.13750001 96.92961568 289.11133766 96.89040756 C292.69633401 96.86957202 296.28094694 96.84132974 299.86572266 96.79589844 C303.3281669 96.75229433 306.79024341 96.72848882 310.25294113 96.71814728 C312.21054982 96.70720804 314.16801148 96.67600497 316.12539673 96.64447021 C327.25705598 96.64166945 327.25705598 96.64166945 331.953125 101.09765625 C335.32700635 105.98764884 335.41274975 110.42918025 335.328125 116.16015625 C335.33972656 116.94970703 335.35132813 117.73925781 335.36328125 118.55273438 C335.3401442 123.15315153 335.15799924 126.53305123 331.953125 130.09765625 C325.97623387 133.35886368 320.713582 133.5660516 313.98828125 133.609375 C312.95497177 133.6273262 311.92166229 133.6452774 310.85704041 133.66377258 C307.57660935 133.71768851 304.29632225 133.75171166 301.015625 133.78515625 C298.78318318 133.81834579 296.5507603 133.85283696 294.31835938 133.88867188 C288.86341039 133.97340408 283.40844233 134.04183279 277.953125 134.09765625 C278.23679932 134.98388672 278.52047363 135.87011719 278.81274414 136.78320312 C279.36369751 138.53213867 279.36369751 138.53213867 279.92578125 140.31640625 C280.29195557 141.47076172 280.65812988 142.62511719 281.03540039 143.81445312 C282.48002526 148.9826668 282.89920733 152.92166689 280.703125 157.97265625 C278.16924165 161.0495146 276.08711808 161.95537971 272.1315918 162.45166016 C268.63426322 162.58439312 265.14005049 162.66731478 261.640625 162.72265625 C259.82401367 162.80966797 259.82401367 162.80966797 257.97070312 162.8984375 C249.31601055 163.02160225 249.31601055 163.02160225 245.65625 160.54052734 C241.8649999 156.42565838 239.45569188 151.70379635 237.578125 146.47265625 C237.20880859 145.5290625 237.20880859 145.5290625 236.83203125 144.56640625 C235.35175089 140.66752575 234.65063916 137.28274119 233.953125 133.09765625 C110.698125 133.59265625 110.698125 133.59265625 -15.046875 134.09765625 C-16.366875 138.71765625 -17.686875 143.33765625 -19.046875 148.09765625 C-21.35548969 154.93799607 -23.33295032 158.02731613 -29.39233398 161.88964844 C-34.13444432 164.04765101 -38.63869464 163.63216005 -43.734375 163.22265625 C-44.74048828 163.18140625 -45.74660156 163.14015625 -46.78320312 163.09765625 C-52.70403728 162.73858127 -56.53322065 162.03494015 -61.046875 158.09765625 C-63.83702335 152.51735955 -61.68605675 146.41488677 -60.02734375 140.80078125 C-59.65891357 139.54426758 -59.2904834 138.28775391 -58.91088867 136.99316406 C-58.62576416 136.03764648 -58.34063965 135.08212891 -58.046875 134.09765625 C-58.91011887 134.08552597 -58.91011887 134.08552597 -59.790802 134.07315063 C-65.79337245 133.98693552 -71.79561911 133.88742479 -77.79785156 133.78027344 C-80.03640291 133.74204637 -82.27501437 133.70718264 -84.51367188 133.67578125 C-87.73589526 133.62999477 -90.95770707 133.57202211 -94.1796875 133.51171875 C-95.17678741 133.50016754 -96.17388733 133.48861633 -97.20120239 133.47671509 C-103.57146836 133.34213537 -108.54096274 132.86592721 -113.88671875 129.09375 C-116.97465152 124.81084867 -116.74818526 121.31114222 -116.609375 116.16015625 C-116.62033203 115.27908203 -116.63128906 114.39800781 -116.64257812 113.49023438 C-116.57961181 107.88623268 -115.84106001 104.48070947 -112.046875 100.09765625 C-108.71514863 96.98567452 -106.40575038 96.72961433 -101.90136719 96.75708008 C-100.66038269 96.75730667 -99.41939819 96.75753326 -98.14080811 96.75776672 C-96.79178505 96.77308536 -95.44276569 96.78873332 -94.09375 96.8046875 C-92.7094163 96.8102855 -91.32507664 96.81455464 -89.94073486 96.81755066 C-86.30411253 96.82898353 -82.66785189 96.85843679 -79.03137207 96.8916626 C-75.31783948 96.92239738 -71.60424823 96.93606324 -67.890625 96.95117188 C-60.60921044 96.98330843 -53.32809347 97.03448538 -46.046875 97.09765625 C-45.78132813 96.01226563 -45.51578125 94.926875 -45.2421875 93.80859375 C-44.88554418 92.36324978 -44.5287662 90.91793903 -44.171875 89.47265625 C-43.99785156 88.75980469 -43.82382812 88.04695312 -43.64453125 87.3125 C-42.61833162 83.16969409 -41.45896771 79.13038947 -40.046875 75.09765625 C-41.31805176 75.07783691 -42.58922852 75.05801758 -43.89892578 75.03759766 C-48.62910283 74.96134739 -53.35898005 74.87265996 -58.08886719 74.78027344 C-60.13340319 74.74206386 -62.17800457 74.70719715 -64.22265625 74.67578125 C-67.16690386 74.62995638 -70.11070448 74.57199065 -73.0546875 74.51171875 C-73.9642923 74.50016754 -74.87389709 74.48861633 -75.81106567 74.47671509 C-82.01997744 74.3333358 -86.76509499 73.61884292 -92.046875 70.09765625 C-95.23460201 64.60157519 -95.17406968 60.12087335 -94.421875 53.91015625 C-94.34042236 53.22099121 -94.25896973 52.53182617 -94.17504883 51.82177734 C-93.56896346 47.63842116 -92.78105983 44.36315648 -90.046875 41.09765625 C-85.9667005 39.43215751 -82.52077777 38.85110557 -78.13330078 38.87060547 C-76.99257111 38.87075653 -75.85184143 38.87090759 -74.67654419 38.87106323 C-73.46070648 38.8813858 -72.24486877 38.89170837 -70.9921875 38.90234375 C-69.73550262 38.90517365 -68.47881775 38.90800354 -67.18405151 38.91091919 C-63.85986636 38.92019502 -60.53596076 38.93813244 -57.21185303 38.96032715 C-53.81313479 38.98086813 -50.41438756 38.98993847 -47.015625 39 C-40.35929833 39.02202246 -33.70310279 39.05547192 -27.046875 39.09765625 C-26.89831055 38.16751709 -26.74974609 37.23737793 -26.59667969 36.27905273 C-25.63733894 30.72791186 -23.75501512 25.45630317 -22.046875 20.09765625 C-21.64572707 18.75172103 -21.2460172 17.40535647 -20.84765625 16.05859375 C-20.43562173 14.71722472 -20.02287535 13.37607413 -19.609375 12.03515625 C-19.23941406 10.80667969 -18.86945313 9.57820312 -18.48828125 8.3125 C-16.85328863 4.66589045 -15.40495388 3.20975111 -12.046875 1.09765625 C-8.15028907 -0.3015593 -4.08341744 -0.02829189 0 0 Z " fill="#F9F9F4" transform="translate(403.046875,630.90234375)"/>
<path d="M0 0 C13.5899201 10.69511846 23.83118594 25.69977412 30.11035156 41.60839844 C30.41199219 42.32382812 30.71363281 43.03925781 31.02441406 43.77636719 C35.26495336 54.16354678 35.55286439 65.15861007 35.54785156 76.23339844 C35.54895432 77.29554565 35.54895432 77.29554565 35.55007935 78.37915039 C35.5197553 89.50446177 34.51988896 99.31504258 30.11035156 109.60839844 C29.82144043 110.31931641 29.5325293 111.03023437 29.23486328 111.76269531 C26.10919427 119.44684136 22.72579355 126.68523546 18.11035156 133.60839844 C17.45035156 133.60839844 16.79035156 133.60839844 16.11035156 133.60839844 C15.12035156 136.57839844 15.12035156 136.57839844 14.11035156 139.60839844 C13.45035156 139.60839844 12.79035156 139.60839844 12.11035156 139.60839844 C11.90410156 140.14464844 11.69785156 140.68089844 11.48535156 141.23339844 C9.5778473 144.52817852 7.06215772 147.20203472 4.11035156 149.60839844 C3.45035156 149.60839844 2.79035156 149.60839844 2.11035156 149.60839844 C2.11035156 150.26839844 2.11035156 150.92839844 2.11035156 151.60839844 C-4.51524534 157.16393213 -12.33466171 161.46309651 -19.88964844 165.60839844 C-20.70433594 166.07375 -21.51902344 166.53910156 -22.35839844 167.01855469 C-42.35419561 177.36448139 -70.45467606 177.79427851 -91.68457031 171.32714844 C-110.28016885 165.26587274 -126.74295491 155.82861985 -139.20214844 140.48339844 C-140.24822266 139.21109375 -140.24822266 139.21109375 -141.31542969 137.91308594 C-142.88964844 135.60839844 -142.88964844 135.60839844 -142.88964844 132.60839844 C-143.87964844 132.27839844 -144.86964844 131.94839844 -145.88964844 131.60839844 C-148.13386315 129.04676378 -149.49056575 126.52289751 -150.70214844 123.35839844 C-151.20294922 122.05515625 -151.20294922 122.05515625 -151.71386719 120.72558594 C-152.101875 119.69691406 -152.48988281 118.66824219 -152.88964844 117.60839844 C-153.39567838 116.29831692 -153.90222085 114.98843329 -154.40917969 113.67871094 C-154.94497929 112.28051981 -155.48013528 110.88208187 -156.01464844 109.48339844 C-156.26835205 108.82694336 -156.52205566 108.17048828 -156.78344727 107.49414062 C-165.1092869 85.45693312 -163.25155588 59.36993095 -153.70947266 37.96044922 C-144.56028742 18.70699965 -131.32348906 1.76018204 -112.08886719 -8.24316406 C-110.62946783 -9.00526603 -109.19295252 -9.8129798 -107.78417969 -10.66503906 C-74.70552171 -30.54838539 -29.58009725 -21.78379255 0 0 Z " fill="#F8F8F4" transform="translate(576.8896484375,454.3916015625)"/>
<path d="M0 0 C3.47914941 -0.02887814 6.95826831 -0.04675687 10.4375 -0.0625 C11.92733398 -0.07506836 11.92733398 -0.07506836 13.44726562 -0.08789062 C14.86362305 -0.09272461 14.86362305 -0.09272461 16.30859375 -0.09765625 C17.62041626 -0.10551147 17.62041626 -0.10551147 18.95874023 -0.11352539 C21 0 21 0 22 1 C21.96519531 1.90105469 21.93039062 2.80210937 21.89453125 3.73046875 C21.80637321 7.44570033 21.95158451 10.42585627 23 14 C25.76439468 16.17979318 28.4546025 17.25682064 31.71875 18.55859375 C39.46009319 21.95925522 45.14653299 28.2390442 49.16015625 35.56640625 C50 38 50 38 51 46 C42.75 46 34.5 46 26 46 C24.68 43.03 23.36 40.06 22 37 C19.73856601 33.93124824 18.85933729 33.1361098 15.08984375 32.5390625 C14.04957031 32.56742187 13.00929688 32.59578125 11.9375 32.625 C10.89464844 32.63789063 9.85179687 32.65078125 8.77734375 32.6640625 C5.79137853 32.8135228 5.79137853 32.8135228 3 35 C2.67 35.99 2.34 36.98 2 38 C1.34 38 0.68 38 0 38 C-1.47193773 45.35968863 -2.20235346 50.73961895 1.67701721 57.34553528 C3.92064631 60.15132023 6.92264584 60.89585707 10.2578125 61.7734375 C11.31245193 62.0927977 11.31245193 62.0927977 12.38839722 62.41860962 C15.36995776 63.32081379 18.36775038 64.16184826 21.36621094 65.00585938 C31.53805482 67.91465767 38.69552759 70.91688784 46 79 C46.53898926 79.56928223 47.07797852 80.13856445 47.63330078 80.72509766 C53.47619027 87.24433448 53.94918966 94.54515915 54 103 C53.58002685 105.85072685 52.91481141 108.25556577 52 111 C51.34 111 50.68 111 50 111 C49.89171875 111.74636719 49.7834375 112.49273438 49.671875 113.26171875 C47.91241592 120.43253744 41.41786292 124.68109627 35.4375 128.375 C31.20188123 130.92755777 27.78297969 132.40567344 23 134 C22.67 138.62 22.34 143.24 22 148 C15.43814571 149.64046357 10.26367849 149.5054714 4 147 C3.87882812 146.32453125 3.75765625 145.6490625 3.6328125 144.953125 C3.38144531 143.61507812 3.38144531 143.61507812 3.125 142.25 C2.88136719 140.92742187 2.88136719 140.92742187 2.6328125 139.578125 C2.01338477 137.05453056 1.47016574 135.1445982 0 133 C-1.87765235 132.30260695 -1.87765235 132.30260695 -4.0625 132.125 C-13.5446775 130.34709172 -20.47530791 123.61757544 -26 116 C-28.95467608 110.66318022 -29.59631508 105.01351327 -30 99 C-27.44276771 97.72138385 -25.63262898 97.88663391 -22.7734375 97.90234375 C-21.2265625 97.90717773 -21.2265625 97.90717773 -19.6484375 97.91210938 C-18.02808594 97.92467773 -18.02808594 97.92467773 -16.375 97.9375 C-14.74304688 97.94426758 -14.74304688 97.94426758 -13.078125 97.95117188 C-10.38536211 97.96298224 -7.69270812 97.97945222 -5 98 C-4.56816406 99.22847656 -4.13632812 100.45695313 -3.69140625 101.72265625 C-2.46254341 104.99649695 -1.11403062 107.67091249 1.0625 110.4375 C1.56910156 111.09621094 2.07570313 111.75492188 2.59765625 112.43359375 C4.65818172 114.73518348 5.75584757 114.9826795 8.86328125 115.203125 C10.00152344 115.21859375 11.13976562 115.2340625 12.3125 115.25 C13.44300781 115.27578125 14.57351563 115.3015625 15.73828125 115.328125 C19.38625778 114.96114293 21.16587226 114.30743144 24 112 C26.65494639 107.0599914 27.048925 101.53667895 27 96 C25.42428702 90.99479408 22.44942064 87.72016982 18 85 C13.55955596 83.02646932 9.09438953 81.99594336 4.3125 81.25 C-6.40620845 79.20993381 -16.16200019 73.45275639 -23 65 C-23.52464844 64.43152344 -24.04929687 63.86304688 -24.58984375 63.27734375 C-29.60206305 56.96000363 -28.74388332 48.62676166 -28 41 C-26.97265625 37.5078125 -26.97265625 37.5078125 -26 35 C-25.34 35 -24.68 35 -24 35 C-23.74605469 34.2575 -23.49210937 33.515 -23.23046875 32.75 C-20.18292966 25.93899201 -13.18760646 20.89590036 -7 17 C-3.625 15.75 -3.625 15.75 -1 15 C0.36532549 13.86298403 0.36532549 13.86298403 0.09765625 10.83984375 C0.08605469 9.55207031 0.07445312 8.26429688 0.0625 6.9375 C0.05347656 5.64714844 0.04445313 4.35679687 0.03515625 3.02734375 C0.02355469 2.02832031 0.01195312 1.02929688 0 0 Z " fill="#153429" transform="translate(502,457)"/>
<path d="M0 0 C69.3 0 138.6 0 210 0 C210.99 2.97 211.98 5.94 213 9 C214.65 13.62 216.3 18.24 218 23 C143.75 23 69.5 23 -7 23 C-3 7 -3 7 0 0 Z " fill="#143429" transform="translate(407,705)"/>
<path d="M0 0 C1.08529959 -0.00573832 1.08529959 -0.00573832 2.19252443 -0.01159257 C4.61145624 -0.02189271 7.03014935 -0.01793617 9.44909668 -0.01396179 C11.18554402 -0.01830987 12.92198944 -0.02349334 14.65843201 -0.02944946 C19.37115289 -0.04283906 24.08379357 -0.04341827 28.79652977 -0.04088616 C32.73059056 -0.03981662 36.66463511 -0.04469929 40.59869242 -0.04949158 C49.87842937 -0.06058622 59.15812584 -0.06102414 68.43786621 -0.05497742 C78.01333195 -0.04893401 87.58865089 -0.06125805 97.16409159 -0.08254749 C105.38501883 -0.10015376 113.60589929 -0.10616646 121.82684469 -0.10290974 C126.73702582 -0.1010955 131.64710217 -0.10374734 136.55726624 -0.11762428 C141.17346897 -0.13018248 145.78944242 -0.12827761 150.40564156 -0.11521339 C152.09995666 -0.11284384 153.7942878 -0.11559586 155.48858452 -0.12383652 C157.80116927 -0.13427365 160.11298034 -0.12622839 162.42553711 -0.11352539 C163.71969292 -0.11369313 165.01384872 -0.11386087 166.34722137 -0.1140337 C169.95082717 0.28720257 171.86168065 1.05507025 174.71276855 3.26069641 C175.31213379 5.4054718 175.31213379 5.4054718 175.2713623 7.85835266 C175.26427246 8.742005 175.25718262 9.62565735 175.24987793 10.53608704 C175.20057129 11.91570618 175.20057129 11.91570618 175.15026855 13.32319641 C175.14156738 14.70861633 175.14156738 14.70861633 175.13269043 16.12202454 C175.00771368 22.96575128 175.00771368 22.96575128 172.71276855 25.26069641 C170.30293698 25.46015818 168.00764343 25.53443095 165.59648132 25.52139282 C164.4844 25.52713114 164.4844 25.52713114 163.34985238 25.53298539 C160.85250796 25.54334742 158.35539208 25.53931721 155.85803223 25.53535461 C154.07276699 25.5396994 152.28750362 25.54488177 150.50224304 25.55084229 C145.64265571 25.56427067 140.78314597 25.56480656 135.92354369 25.56227899 C131.87033785 25.56121157 127.81714786 25.56608689 123.7639454 25.57088441 C114.20187122 25.58199351 104.63983631 25.58240955 95.07775879 25.57637024 C85.20754596 25.57033218 75.33747574 25.582634 65.46728724 25.60394031 C57.0001383 25.62154709 48.53303478 25.62755901 40.0658682 25.62430257 C35.00585483 25.62248762 29.94594311 25.62514664 24.88594627 25.63901711 C20.12614987 25.65157531 15.36657583 25.64967037 10.60678291 25.63660622 C8.85925599 25.63423626 7.11171352 25.63699009 5.36420441 25.64522934 C2.97921257 25.65566357 0.59497136 25.64762325 -1.78999329 25.63491821 C-2.48221743 25.6422925 -3.17444157 25.64966678 -3.8876422 25.65726453 C-8.15486946 25.60941644 -10.94398035 24.9677804 -14.28723145 22.26069641 C-14.8458252 19.11616516 -14.8458252 19.11616516 -14.72473145 15.44819641 C-14.70281738 14.2455011 -14.68090332 13.04280579 -14.6583252 11.80366516 C-14.28559886 8.24510951 -13.83801451 5.48953044 -12.28723145 2.26069641 C-8.21659254 0.05582181 -4.5705239 0.00725005 0 0 Z " fill="#16352A" transform="translate(392.2872314453125,299.7393035888672)"/>
<path d="M0 0 C1.07705757 -0.00596161 1.07705757 -0.00596161 2.17587388 -0.01204365 C4.57644662 -0.02165058 6.97642764 -0.00985852 9.37698364 0.00190735 C11.10033386 -0.00052119 12.82368267 -0.00424112 14.54702759 -0.00915527 C19.22481352 -0.01856076 23.90239008 -0.00914093 28.58015966 0.00417686 C33.47761407 0.01549689 38.37505824 0.01138332 43.27252197 0.00942993 C51.49910906 0.00854696 59.72561375 0.01962652 67.95217896 0.03804016 C77.45714502 0.05919375 86.96199026 0.06272064 96.46697509 0.0564782 C105.61490272 0.05077824 114.76278788 0.05643858 123.91070938 0.06765175 C127.80128898 0.07229079 131.69184255 0.07317457 135.58242416 0.0710659 C140.16741617 0.06917868 144.75228568 0.07732028 149.33724976 0.0931263 C151.01781838 0.09735988 152.69839946 0.09822594 154.3789711 0.0954361 C156.67758541 0.0921999 158.97583702 0.10133207 161.27441406 0.11352539 C162.55935194 0.11557826 163.84428982 0.11763113 165.16816521 0.11974621 C168.9890303 0.39013276 172.18102546 1.01801664 175.76419067 2.3742218 C177.79348303 8.46209886 177.18770778 14.46689885 174.76419067 20.3742218 C174.10419067 20.3742218 173.44419067 20.3742218 172.76419067 20.3742218 C172.76419067 21.0342218 172.76419067 21.6942218 172.76419067 22.3742218 C169.06425115 24.72577257 165.8567074 24.62569685 161.5390625 24.62818909 C160.81018361 24.63130907 160.08130472 24.63442905 159.3303386 24.63764358 C156.88747141 24.64562234 154.4448527 24.63930052 152.00198364 24.63301086 C150.25096491 24.63572073 148.49994731 24.63928164 146.74893188 24.64363098 C141.99295941 24.65275638 137.23707361 24.64921045 132.48109961 24.64287281 C127.50922757 24.63781522 122.53736304 24.64250344 117.56549072 24.64564514 C109.21781072 24.64928481 100.87016609 24.64448496 92.52249146 24.63496399 C82.86124175 24.62407232 73.2000764 24.62761019 63.53882873 24.6386168 C55.25172924 24.64768116 46.96465519 24.64897935 38.67755234 24.64373946 C33.72444215 24.64061599 28.77137167 24.64022089 23.81826401 24.64681244 C19.16436546 24.65257317 14.51057615 24.64861248 9.85668945 24.63702393 C8.14499213 24.6343708 6.43328568 24.63515348 4.72159195 24.63954926 C2.39271939 24.6449804 0.06420128 24.63820063 -2.26464844 24.62818909 C-4.22303996 24.62705801 -4.22303996 24.62705801 -6.22099495 24.62590408 C-9.23580933 24.3742218 -9.23580933 24.3742218 -11.23580933 22.3742218 C-12.59135013 18.6508857 -12.51110463 14.7347182 -12.61080933 10.8117218 C-12.64819214 10.13947571 -12.68557495 9.46722961 -12.72409058 8.77461243 C-12.75924683 6.80781555 -12.75924683 6.80781555 -12.23580933 3.3742218 C-8.28200963 0.16019477 -4.98798416 -0.00065154 0 0 Z " fill="#16342A" transform="translate(391.2358093261719,361.6257781982422)"/>
<path d="M0 0 C8.91258865 4.89105475 14.71760685 13.83139064 20.83569336 21.74633789 C24.5534485 26.52185893 28.5457961 30.97861965 32.66015625 35.41796875 C36.31406111 39.45007411 39.64901922 43.71592091 43 48 C44.28907135 49.62705957 45.58077256 51.25203879 46.875 52.875 C47.52210938 53.68710937 48.16921875 54.49921875 48.8359375 55.3359375 C50.44691122 57.31912175 52.07371239 59.27884854 53.7265625 61.2265625 C54.41709717 62.04278076 54.41709717 62.04278076 55.12158203 62.87548828 C56.44143784 64.43098253 57.76745495 65.98124253 59.09375 67.53125 C61 70 61 70 61 72 C61.99 72.33 62.98 72.66 64 73 C64 73.66 64 74.32 64 75 C64.66 75 65.32 75 66 75 C67.2890625 76.609375 67.2890625 76.609375 68.625 78.75 C69.29402344 79.79414063 69.29402344 79.79414063 69.9765625 80.859375 C71 83 71 83 71 87 C62.48111013 87.11594941 53.96255097 87.20474236 45.4430666 87.25906086 C41.48690697 87.28513382 37.53128795 87.32048809 33.57543945 87.37719727 C29.75637198 87.43160179 25.9378238 87.46143786 22.11839867 87.47438622 C20.66270969 87.48361119 19.20704854 87.50162618 17.75158119 87.52865028 C15.70917421 87.56505743 13.66890097 87.56994116 11.6262207 87.56762695 C10.46484085 87.57873001 9.303461 87.58983307 8.10688782 87.60127258 C4.04095033 86.81439617 2.6143307 85.13600237 0 82 C-2.40470585 78.39294122 -2.28267113 75.78799572 -2.25878906 71.62280273 C-2.2622937 70.87455231 -2.26579834 70.12630188 -2.26940918 69.3553772 C-2.27821404 66.88135511 -2.27238241 64.40761876 -2.265625 61.93359375 C-2.26697187 60.21631312 -2.26891258 58.49903286 -2.27142334 56.78175354 C-2.27437279 53.18299733 -2.27008218 49.58434038 -2.26074219 45.9855957 C-2.24933915 41.36614566 -2.25591359 36.74692778 -2.26788712 32.12748623 C-2.27510324 28.5819574 -2.27281909 25.03648391 -2.26763153 21.49095345 C-2.26629479 19.78725215 -2.26794361 18.08354587 -2.27259064 16.37985039 C-2.27765278 14.00236509 -2.26995068 11.62525964 -2.25878906 9.24780273 C-2.26283752 8.53969955 -2.26688599 7.83159637 -2.27105713 7.10203552 C-2.22853091 2.22853091 -2.22853091 2.22853091 0 0 Z " fill="#F8F8F4" transform="translate(628,248)"/>
<path d="M0 0 C0.88179778 -0.00199105 1.76359556 -0.0039821 2.67211449 -0.00603348 C4.13415442 -0.00166422 4.13415442 -0.00166422 5.62573051 0.00279331 C6.65649456 0.00193889 7.6872586 0.00108446 8.74925792 0.00020415 C12.22558601 -0.00145148 15.70186654 0.00407208 19.17819023 0.00952244 C21.66121227 0.00980432 24.1442344 0.00964656 26.62725639 0.00907993 C31.98456377 0.00885174 37.34185615 0.01170004 42.69915962 0.01731777 C50.44497897 0.02543486 58.19079243 0.02804821 65.93661557 0.02930576 C78.50282087 0.03149595 91.0690197 0.03815515 103.63522148 0.04760838 C115.84420553 0.05678334 128.05318781 0.06386376 140.26217461 0.06811619 C141.39047076 0.06851027 141.39047076 0.06851027 142.54156078 0.06891232 C146.31500546 0.07021733 150.08845015 0.07148104 153.86189485 0.07272422 C185.18071026 0.08309581 216.49951762 0.10078742 247.81832695 0.12304783 C247.48832695 1.11304783 247.15832695 2.10304783 246.81832695 3.12304783 C214.87645912 3.16863551 182.93460051 3.20404778 150.99270777 3.22517849 C147.22494536 3.22768002 143.45718301 3.23026865 139.6894207 3.23291111 C138.56424117 3.23369804 138.56424117 3.23369804 137.41633074 3.23450087 C125.25736886 3.24321255 113.09842582 3.2589867 100.93947513 3.27735342 C88.47090983 3.29603128 76.00235441 3.30716006 63.53377569 3.31122482 C55.83489533 3.31397428 48.13606821 3.32267005 40.43720423 3.33888076 C34.54189921 3.35066445 28.64662179 3.35196454 22.75130463 3.34926319 C20.32685518 3.34981585 17.90240381 3.35382608 15.47796631 3.36145878 C12.18115726 3.37133344 8.88458049 3.36904422 5.58776665 3.36355686 C4.61696431 3.36938254 3.64616197 3.37520823 2.64594138 3.38121045 C1.76762699 3.37722835 0.8893126 3.37324625 -0.01561737 3.36914349 C-0.77733635 3.36990293 -1.53905534 3.37066237 -2.32385671 3.37144482 C-4.18167305 3.12304783 -4.18167305 3.12304783 -6.18167305 1.12304783 C-3.8712421 -0.03216765 -2.57046744 -0.0012763 0 0 Z " fill="#B9C5BD" transform="translate(356.18167304992676,234.87695217132568)"/>
<path d="M0 0 C1 4 1 4 0 6 C108.405 5.505 108.405 5.505 219 5 C219 3.35 219 1.7 219 0 C221 2 221 2 223 8 C148.75 8 74.5 8 -2 8 C-1.34 5.36 -0.68 2.72 0 0 Z " fill="#0C271D" transform="translate(402,720)"/>
<path d="M0 0 C2.32789515 2.83395931 3.07377893 4.29511572 4 8 C-57.38 8 -118.76 8 -182 8 C-181.34 5.69 -180.68 3.38 -180 1 C-179.67 1.99 -179.34 2.98 -179 4 C-179.33 4.66 -179.66 5.32 -180 6 C-120.27 5.67 -60.54 5.34 1 5 C0.67 3.35 0.34 1.7 0 0 Z " fill="#051F13" transform="translate(602,662)"/>
<path d="M0 0 C1 4 1 4 0 6 C72.6 6 145.2 6 220 6 C220 6.33 220 6.66 220 7 C146.74 7.33 73.48 7.66 -2 8 C-1.34 5.36 -0.68 2.72 0 0 Z " fill="#011B10" transform="translate(402,720)"/>
<path d="M0 0 C0.69277542 0.65030685 1.38555084 1.30061371 2.09931946 1.97062683 C5.54854408 4.38377223 7.245669 4.49179049 11.41088867 4.4699707 C13.3226313 4.47435905 13.3226313 4.47435905 15.272995 4.47883606 C16.65466015 4.4617257 18.03631812 4.44402683 19.41796875 4.42578125 C20.84092247 4.42085459 22.26388269 4.41755751 23.68684387 4.41581726 C26.66180276 4.40819256 29.63627787 4.38767529 32.61108398 4.35668945 C36.42780179 4.31700742 40.24420604 4.29906162 44.06110668 4.28938007 C47.7009366 4.27941972 51.34068982 4.25953315 54.98046875 4.23828125 C55.67622702 4.2348855 56.37198528 4.23148975 57.08882713 4.2279911 C59.05168932 4.21643897 61.01449977 4.19691671 62.97729492 4.17700195 C64.0947258 4.16715775 65.21215668 4.15731354 66.3634491 4.14717102 C68.97845311 4.17605244 68.97845311 4.17605244 71 3 C71 4.32 71 5.64 71 7 C62.48111013 7.11594941 53.96255097 7.20474236 45.4430666 7.25906086 C41.48690697 7.28513382 37.53128795 7.32048809 33.57543945 7.37719727 C29.75637198 7.43160179 25.9378238 7.46143786 22.11839867 7.47438622 C20.66270969 7.48361119 19.20704854 7.50162618 17.75158119 7.52865028 C15.70917421 7.56505743 13.66890097 7.56994116 11.6262207 7.56762695 C9.88415092 7.58428154 9.88415092 7.58428154 8.10688782 7.60127258 C4.06022612 6.81812659 2.54819702 5.16349697 0 2 C0 1.34 0 0.68 0 0 Z " fill="#F4F5F2" transform="translate(628,328)"/>
<path d="M0 0 C0.66 0.33 1.32 0.66 2 1 C1.67 1.33 1.34 1.66 1 2 C0.87225155 4.40939516 0.81478436 6.77749676 0.8125 9.1875 C0.79123047 11.15783203 0.79123047 11.15783203 0.76953125 13.16796875 C0.98976324 16.82979223 1.66402464 19.60461599 3 23 C-0.87411431 21.53050837 -2.17559981 19.66929926 -4 16 C-4.43359375 13.02734375 -4.43359375 13.02734375 -4.4375 9.9375 C-4.45683594 8.91527344 -4.47617187 7.89304687 -4.49609375 6.83984375 C-3.89002471 3.3704564 -2.67089376 2.20547068 0 0 Z " fill="#ACB3AF" transform="translate(379,363)"/>
<path d="M0 0 C3.29043773 3.07815142 4.86823183 4.9652543 5.16796875 9.59375 C5.17441406 10.5528125 5.18085938 11.511875 5.1875 12.5 C5.20167969 13.4590625 5.21585937 14.418125 5.23046875 15.40625 C5 18 5 18 3 21 C2.95101563 20.23816406 2.90203125 19.47632813 2.8515625 18.69140625 C2.38661304 12.27029384 1.56139657 6.24558627 0 0 Z " fill="#A7AFAA" transform="translate(406,586)"/>
<path d="M0 0 C0.66 0.33 1.32 0.66 2 1 C1.67 1.33 1.34 1.66 1 2 C0.76636119 3.84891946 0.58696365 5.70488031 0.4375 7.5625 C0.35371094 8.57441406 0.26992188 9.58632813 0.18359375 10.62890625 C0.12300781 11.41136719 0.06242187 12.19382812 0 13 C-0.66 12.01 -1.32 11.02 -2 10 C-2.66 10.66 -3.32 11.32 -4 12 C-4.49230769 4.61538462 -4.49230769 4.61538462 -2 1.5 C-1.34 1.005 -0.68 0.51 0 0 Z " fill="#A0A8A4" transform="translate(379,363)"/>
<path d="M0 0 C0.99 0.495 0.99 0.495 2 1 C2.6328125 3.28515625 2.6328125 3.28515625 3.125 6.0625 C3.29257812 6.98160156 3.46015625 7.90070312 3.6328125 8.84765625 C3.75398438 9.55792969 3.87515625 10.26820313 4 11 C5.65 11.33 7.3 11.66 9 12 C9 12.33 9 12.66 9 13 C6.03 12.67 3.06 12.34 0 12 C0 8.04 0 4.08 0 0 Z " fill="#ABB2AD" transform="translate(503,593)"/>
<path d="M0 0 C0.99 0.33 1.98 0.66 3 1 C2.67 1.99 2.34 2.98 2 4 C1.93197033 5.72795352 1.91504355 7.45835365 1.9375 9.1875 C1.95103516 10.53908203 1.95103516 10.53908203 1.96484375 11.91796875 C1.97644531 12.60503906 1.98804688 13.29210937 2 14 C1.01 14 0.02 14 -1 14 C-1.93402724 8.58264203 -2.20808081 5.19548425 0 0 Z " fill="#B9BDB9" transform="translate(378,426)"/>
<path d="M0 0 C1.32 0.33 2.64 0.66 4 1 C3.01 1.495 3.01 1.495 2 2 C1.52381188 4.87182587 1.15832403 7.67120147 0.875 10.5625 C0.78863281 11.36880859 0.70226562 12.17511719 0.61328125 13.00585938 C0.40056372 15.00304064 0.19922145 17.00142737 0 19 C-0.33 19 -0.66 19 -1 19 C-1.22397733 16.95999027 -1.42848537 14.91783811 -1.625 12.875 C-1.74101562 11.73804688 -1.85703125 10.60109375 -1.9765625 9.4296875 C-2.00112837 5.83488201 -1.32167811 3.319329 0 0 Z " fill="#B6BCB6" transform="translate(378,301)"/>
<path d="M0 0 C0.66 0 1.32 0 2 0 C2.05391993 1.79133978 2.09275571 3.58313899 2.125 5.375 C2.14820313 6.37273437 2.17140625 7.37046875 2.1953125 8.3984375 C2 11 2 11 0 13 C-2.125 12.625 -2.125 12.625 -4 12 C-3.01 11.34 -2.02 10.68 -1 10 C-0.41810734 7.57478506 -0.41810734 7.57478506 -0.3125 4.875 C-0.21388672 3.50988281 -0.21388672 3.50988281 -0.11328125 2.1171875 C-0.07589844 1.41851562 -0.03851563 0.71984375 0 0 Z " fill="#E2E6E3" transform="translate(501,460)"/>
<path d="M0 0 C0.33 0.66 0.66 1.32 1 2 C0.67 2.66 0.34 3.32 0 4 C-0.99 4 -1.98 4 -3 4 C-3.33 7.96 -3.66 11.92 -4 16 C-4.33 16 -4.66 16 -5 16 C-5.13496251 13.89758397 -5.23197307 11.7927039 -5.3125 9.6875 C-5.37050781 8.51574219 -5.42851562 7.34398437 -5.48828125 6.13671875 C-5 3 -5 3 -2.48046875 1.08203125 C-1.66191406 0.72496094 -0.84335937 0.36789062 0 0 Z " fill="#0F2218" transform="translate(384,362)"/>
<path d="M0 0 C0.33 0.99 0.66 1.98 1 3 C-2.97610294 8.68014706 -2.97610294 8.68014706 -6.17578125 9.6796875 C-7.07876953 9.83824219 -7.07876953 9.83824219 -8 10 C-7.59007812 9.52949219 -7.18015625 9.05898438 -6.7578125 8.57421875 C-6.21898437 7.95160156 -5.68015625 7.32898438 -5.125 6.6875 C-4.59132813 6.07261719 -4.05765625 5.45773437 -3.5078125 4.82421875 C-1.8359553 2.86501788 -1.8359553 2.86501788 0 0 Z " fill="#091D14" transform="translate(589,594)"/>
<path d="M0 0 C0.66 0 1.32 0 2 0 C1.34 3.63 0.68 7.26 0 11 C-2 9 -2 9 -2.25 6.0625 C-2 3 -2 3 0 0 Z " fill="#75817D" transform="translate(616,595)"/>
<path d="M0 0 C1.18771723 3.42943519 0.80226223 5.37784675 -0.4375 8.75 C-0.86869141 9.94882812 -0.86869141 9.94882812 -1.30859375 11.171875 C-1.65083984 12.07679688 -1.65083984 12.07679688 -2 13 C-3.47717605 8.2771977 -2.18614967 4.37229933 0 0 Z " fill="#061D13" transform="translate(531,555)"/>
<path d="M0 0 C0.33 1.32 0.66 2.64 1 4 C-2.96 3.67 -6.92 3.34 -11 3 C-11 2.67 -11 2.34 -11 2 C-10.28972656 1.93941406 -9.57945312 1.87882812 -8.84765625 1.81640625 C-7.46900391 1.69072266 -7.46900391 1.69072266 -6.0625 1.5625 C-5.14597656 1.48128906 -4.22945312 1.40007812 -3.28515625 1.31640625 C-1.03840268 1.23955024 -1.03840268 1.23955024 0 0 Z " fill="#D6DAD5" transform="translate(698,331)"/>
<path d="M0 0 C2.29633824 3.44450737 2.54016485 5.93812283 3 10 C1 9 1 9 -0.1875 6.125 C-1 3 -1 3 0 0 Z " fill="#DDE3E0" transform="translate(681,767)"/>
<path d="M0 0 C1.5625 1.5625 1.5625 1.5625 3 4 C2.6875 7.75 2.6875 7.75 2 11 C-0.32590854 7.36576791 -0.16265833 4.22911669 0 0 Z " fill="#1E3A30" transform="translate(665,709)"/>
<path d="M0 0 C0.33 0.99 0.66 1.98 1 3 C-1.33333333 7.66666667 -1.33333333 7.66666667 -4 9 C-2.94124926 5.59687262 -1.99097846 2.98646769 0 0 Z " fill="#ADB5B0" transform="translate(625,579)"/>
</svg>
